<svg width="45" height="45" viewBox="0 0 45 45" fill="none" xmlns="http://www.w3.org/2000/svg">
<rect x="0.5" y="0.555573" width="44" height="44" rx="12" fill="#82C9A7"/>
<path d="M15.5 13.0556H29.5C29.6326 13.0556 29.7597 13.1083 29.8535 13.2021C29.9473 13.2958 30 13.423 30 13.5556V31.0556H31.5C31.6326 31.0556 31.7597 31.1083 31.8535 31.2021C31.9473 31.2958 32 31.423 32 31.5556C32 31.6882 31.9473 31.8153 31.8535 31.9091C31.7597 32.0029 31.6326 32.0556 31.5 32.0556H13.5C13.3674 32.0556 13.2403 32.0029 13.1465 31.9091C13.0527 31.8153 13 31.6882 13 31.5556C13 31.423 13.0527 31.2958 13.1465 31.2021C13.2403 31.1083 13.3674 31.0556 13.5 31.0556H15V13.5556C15 13.423 15.0527 13.2958 15.1465 13.2021C15.2403 13.1083 15.3674 13.0556 15.5 13.0556ZM16 31.0556H20V25.5556C20 25.423 20.0527 25.2958 20.1465 25.2021C20.2403 25.1083 20.3674 25.0556 20.5 25.0556H24.5C24.6326 25.0556 24.7597 25.1083 24.8535 25.2021C24.9473 25.2958 25 25.423 25 25.5556V31.0556H29V14.0556H16V31.0556ZM21 31.0556H24V26.0556H21V31.0556ZM19.5 21.0556H20.5C20.6326 21.0556 20.7597 21.1083 20.8535 21.2021C20.9473 21.2958 21 21.423 21 21.5556C21 21.6882 20.9473 21.8153 20.8535 21.9091C20.7597 22.0029 20.6326 22.0556 20.5 22.0556H19.5C19.3674 22.0556 19.2403 22.0029 19.1465 21.9091C19.0527 21.8153 19 21.6882 19 21.5556C19 21.423 19.0527 21.2958 19.1465 21.2021C19.2403 21.1083 19.3674 21.0556 19.5 21.0556ZM24.5 21.0556H25.5C25.6326 21.0556 25.7597 21.1083 25.8535 21.2021C25.9473 21.2958 26 21.423 26 21.5556C26 21.6882 25.9473 21.8153 25.8535 21.9091C25.7597 22.0029 25.6326 22.0556 25.5 22.0556H24.5C24.3674 22.0556 24.2403 22.0029 24.1465 21.9091C24.0527 21.8153 24 21.6882 24 21.5556C24 21.423 24.0527 21.2958 24.1465 21.2021C24.2403 21.1083 24.3674 21.0556 24.5 21.0556ZM19.5 17.0556H20.5C20.6326 17.0556 20.7597 17.1083 20.8535 17.2021C20.9473 17.2958 21 17.423 21 17.5556C21 17.6882 20.9473 17.8153 20.8535 17.9091C20.7597 18.0029 20.6326 18.0556 20.5 18.0556H19.5C19.3674 18.0556 19.2403 18.0029 19.1465 17.9091C19.0527 17.8153 19 17.6882 19 17.5556C19 17.423 19.0527 17.2958 19.1465 17.2021C19.2403 17.1083 19.3674 17.0556 19.5 17.0556ZM24.5 17.0556H25.5C25.6326 17.0556 25.7597 17.1083 25.8535 17.2021C25.9473 17.2958 26 17.423 26 17.5556C26 17.6882 25.9473 17.8153 25.8535 17.9091C25.7597 18.0029 25.6326 18.0556 25.5 18.0556H24.5C24.3674 18.0556 24.2403 18.0029 24.1465 17.9091C24.0527 17.8153 24 17.6882 24 17.5556C24 17.423 24.0527 17.2958 24.1465 17.2021C24.2403 17.1083 24.3674 17.0556 24.5 17.0556Z" fill="#F5F6FA" stroke="#F5F6FA"/>
</svg>
