<svg width="45" height="45" viewBox="0 0 45 45" fill="none" xmlns="http://www.w3.org/2000/svg">
<rect x="0.25" y="0.888885" width="44" height="44" rx="12" fill="#A69EF3"/>
<path d="M29.2501 13.4232C29.9068 13.4232 30.5384 13.6738 31.0167 14.1234C31.4635 14.5863 31.7147 15.2034 31.7178 15.847C31.7209 16.4933 31.4733 17.1164 31.0274 17.5843L28.628 19.9935C28.2613 20.3559 27.7917 20.5959 27.2833 20.681C26.7746 20.766 26.2519 20.6916 25.7872 20.4681L25.4669 20.3148L25.2169 20.5657L23.0665 22.7151L22.713 23.0687L25.0665 25.4222L25.0704 25.4271C25.3783 25.7277 25.6032 26.1028 25.7237 26.5159C25.8441 26.9289 25.8558 27.3656 25.7579 27.7845C25.6598 28.2035 25.4554 28.5907 25.1641 28.9075C24.8729 29.2242 24.505 29.4603 24.0958 29.5931L24.0919 29.5941L16.0919 32.2542L16.085 32.2571C15.82 32.3497 15.5405 32.3942 15.2598 32.389H15.2422C14.9011 32.3944 14.5624 32.3299 14.2471 32.1995C13.9318 32.0691 13.6469 31.875 13.4092 31.6302L13.4044 31.6263L13.2862 31.4984C13.0214 31.1929 12.834 30.8272 12.7413 30.4319C12.6353 29.9802 12.6565 29.5077 12.8038 29.0677L12.8047 29.0667L15.4649 21.0667L15.4659 21.0628C15.5987 20.6536 15.8348 20.2856 16.1514 19.9944C16.4681 19.7033 16.8546 19.4988 17.2735 19.4007C17.6924 19.3027 18.13 19.3145 18.543 19.4349C18.9045 19.5403 19.2369 19.7259 19.5157 19.9769L19.6319 20.0882L19.6368 20.0921L21.9903 22.4456L24.7442 19.6917L24.5909 19.3724C24.3673 18.9077 24.293 18.3849 24.378 17.8763C24.4628 17.369 24.7016 16.8999 25.0626 16.5335L27.4825 14.1234C27.9609 13.6735 28.5931 13.4232 29.2501 13.4232ZM17.6358 20.3919L17.5928 20.3968L17.5508 20.4085C17.2907 20.4837 17.0559 20.6285 16.8712 20.8265C16.6988 21.0112 16.5777 21.2365 16.5157 21.4808L13.8458 29.4808L13.8419 29.4925C13.7623 29.753 13.7553 30.031 13.8214 30.2952C13.8873 30.5588 14.0238 30.7994 14.2159 30.9915V30.9925C14.4083 31.1852 14.6499 31.3219 14.9141 31.388C15.1782 31.454 15.4555 31.447 15.7159 31.3675L15.7237 31.3646L15.7315 31.3626L23.7061 28.6429L23.7071 28.6439C23.949 28.5639 24.1662 28.423 24.3389 28.2357C24.5116 28.0483 24.6344 27.8202 24.6944 27.5726C24.7544 27.325 24.7504 27.0662 24.6827 26.8206C24.6149 26.5749 24.4852 26.3501 24.3067 26.1683L24.3047 26.1663L22.3848 24.2366L22.0294 23.8792L21.6749 24.2376L20.8145 25.1068C20.7681 25.1535 20.7132 25.1908 20.6524 25.2161C20.5915 25.2415 20.526 25.2542 20.46 25.2542C20.394 25.2542 20.3286 25.2415 20.2676 25.2161C20.2068 25.1907 20.151 25.1536 20.1046 25.1068L20.1016 25.1038C20.0549 25.0574 20.0176 25.0015 19.9922 24.9407C19.9671 24.8801 19.9542 24.815 19.9542 24.7493C19.9542 24.6835 19.967 24.6177 19.9922 24.5569C20.0175 24.4963 20.0541 24.4402 20.1006 24.3939L20.1016 24.3948L20.9717 23.5345L21.3292 23.181L18.9717 20.8235C18.6924 20.5467 18.3153 20.3906 17.9219 20.389H17.921C17.8261 20.3819 17.7304 20.3817 17.6358 20.3919ZM29.2501 14.3831C29.052 14.3831 28.8557 14.4222 28.6729 14.4984C28.4902 14.5745 28.324 14.6859 28.1846 14.8265L25.7755 17.2464C25.4983 17.5258 25.3416 17.9037 25.3399 18.2972V18.3011C25.3412 18.5959 25.4289 18.8842 25.5928 19.1292C25.7568 19.3742 25.9897 19.5654 26.2618 19.679C26.5339 19.7926 26.8336 19.8235 27.1231 19.7679C27.4127 19.7122 27.6791 19.572 27.8897 19.3655L27.8936 19.3626L30.1573 17.0989H30.1661L30.3126 16.9534C30.4529 16.8141 30.5646 16.6486 30.6407 16.4661C30.7168 16.2834 30.7559 16.087 30.7559 15.889C30.7559 15.691 30.7168 15.4946 30.6407 15.3118C30.5645 15.1291 30.4522 14.963 30.3116 14.8235C30.1729 14.6846 30.0084 14.5739 29.8272 14.4984C29.6444 14.4222 29.4481 14.3831 29.2501 14.3831Z" fill="#F5F6FA" stroke="#F5F6FA"/>
</svg>
