<svg width="45" height="45" viewBox="0 0 45 45" fill="none" xmlns="http://www.w3.org/2000/svg">
<rect x="0.75" y="0.888885" width="44" height="44" rx="12" fill="#A69EF3"/>
<path d="M15.75 13.3889H29.75C29.8826 13.3889 30.0097 13.4416 30.1035 13.5354C30.1973 13.6291 30.25 13.7563 30.25 13.8889V31.3889H31.75C31.8826 31.3889 32.0097 31.4416 32.1035 31.5354C32.1973 31.6291 32.25 31.7563 32.25 31.8889C32.25 32.0215 32.1973 32.1486 32.1035 32.2424C32.0097 32.3362 31.8826 32.3889 31.75 32.3889H13.75C13.6174 32.3889 13.4903 32.3362 13.3965 32.2424C13.3027 32.1486 13.25 32.0215 13.25 31.8889C13.25 31.7563 13.3027 31.6291 13.3965 31.5354C13.4903 31.4416 13.6174 31.3889 13.75 31.3889H15.25V13.8889C15.25 13.7563 15.3027 13.6291 15.3965 13.5354C15.4903 13.4416 15.6174 13.3889 15.75 13.3889ZM16.25 31.3889H20.25V25.8889C20.25 25.7563 20.3027 25.6291 20.3965 25.5354C20.4903 25.4416 20.6174 25.3889 20.75 25.3889H24.75C24.8826 25.3889 25.0097 25.4416 25.1035 25.5354C25.1973 25.6291 25.25 25.7563 25.25 25.8889V31.3889H29.25V14.3889H16.25V31.3889ZM21.25 31.3889H24.25V26.3889H21.25V31.3889ZM19.75 21.3889H20.75C20.8826 21.3889 21.0097 21.4416 21.1035 21.5354C21.1973 21.6291 21.25 21.7563 21.25 21.8889C21.25 22.0215 21.1973 22.1486 21.1035 22.2424C21.0097 22.3362 20.8826 22.3889 20.75 22.3889H19.75C19.6174 22.3889 19.4903 22.3362 19.3965 22.2424C19.3027 22.1486 19.25 22.0215 19.25 21.8889C19.25 21.7563 19.3027 21.6291 19.3965 21.5354C19.4903 21.4416 19.6174 21.3889 19.75 21.3889ZM24.75 21.3889H25.75C25.8826 21.3889 26.0097 21.4416 26.1035 21.5354C26.1973 21.6291 26.25 21.7563 26.25 21.8889C26.25 22.0215 26.1973 22.1486 26.1035 22.2424C26.0097 22.3362 25.8826 22.3889 25.75 22.3889H24.75C24.6174 22.3889 24.4903 22.3362 24.3965 22.2424C24.3027 22.1486 24.25 22.0215 24.25 21.8889C24.25 21.7563 24.3027 21.6291 24.3965 21.5354C24.4903 21.4416 24.6174 21.3889 24.75 21.3889ZM19.75 17.3889H20.75C20.8826 17.3889 21.0097 17.4416 21.1035 17.5354C21.1973 17.6291 21.25 17.7563 21.25 17.8889C21.25 18.0215 21.1973 18.1486 21.1035 18.2424C21.0097 18.3362 20.8826 18.3889 20.75 18.3889H19.75C19.6174 18.3889 19.4903 18.3362 19.3965 18.2424C19.3027 18.1486 19.25 18.0215 19.25 17.8889C19.25 17.7563 19.3027 17.6291 19.3965 17.5354C19.4903 17.4416 19.6174 17.3889 19.75 17.3889ZM24.75 17.3889H25.75C25.8826 17.3889 26.0097 17.4416 26.1035 17.5354C26.1973 17.6291 26.25 17.7563 26.25 17.8889C26.25 18.0215 26.1973 18.1486 26.1035 18.2424C26.0097 18.3362 25.8826 18.3889 25.75 18.3889H24.75C24.6174 18.3889 24.4903 18.3362 24.3965 18.2424C24.3027 18.1486 24.25 18.0215 24.25 17.8889C24.25 17.7563 24.3027 17.6291 24.3965 17.5354C24.4903 17.4416 24.6174 17.3889 24.75 17.3889Z" fill="#F5F6FA" stroke="#F5F6FA"/>
</svg>
