<svg width="44" height="45" viewBox="0 0 44 45" fill="none" xmlns="http://www.w3.org/2000/svg">
<rect y="0.333344" width="44" height="44" rx="12" fill="#4FCCC4"/>
<path d="M29.0001 12.8676C29.6568 12.8676 30.2884 13.1183 30.7667 13.5678C31.2135 14.0307 31.4647 14.6479 31.4678 15.2914C31.4709 15.9378 31.2233 16.5608 30.7774 17.0287L28.378 19.4379C28.0113 19.8003 27.5417 20.0404 27.0333 20.1254C26.5246 20.2105 26.0019 20.1361 25.5372 19.9125L25.2169 19.7592L24.9669 20.0102L22.8165 22.1596L22.463 22.5131L24.8165 24.8666L24.8204 24.8715C25.1283 25.1722 25.3532 25.5473 25.4737 25.9604C25.5941 26.3734 25.6058 26.8101 25.5079 27.2289C25.4098 27.648 25.2054 28.0352 24.9141 28.352C24.6229 28.6686 24.255 28.9047 23.8458 29.0375L23.8419 29.0385L15.8419 31.6987L15.835 31.7016C15.57 31.7941 15.2905 31.8386 15.0098 31.8334H14.9922C14.6511 31.8388 14.3124 31.7744 13.9971 31.644C13.6818 31.5136 13.3969 31.3195 13.1592 31.0746L13.1544 31.0707L13.0362 30.9428C12.7714 30.6373 12.584 30.2717 12.4913 29.8764C12.3853 29.4246 12.4065 28.9522 12.5538 28.5121L12.5547 28.5112L15.2149 20.5112L15.2159 20.5073C15.3487 20.0981 15.5848 19.7301 15.9014 19.4389C16.2181 19.1477 16.6046 18.9433 17.0235 18.8452C17.4424 18.7471 17.88 18.7589 18.293 18.8793C18.6545 18.9847 18.9869 19.1704 19.2657 19.4213L19.3819 19.5327L19.3868 19.5366L21.7403 21.8901L24.4942 19.1362L24.3409 18.8168C24.1173 18.3521 24.043 17.8294 24.128 17.3207C24.2128 16.8134 24.4516 16.3443 24.8126 15.978L27.2325 13.5678C27.7109 13.118 28.3431 12.8676 29.0001 12.8676ZM17.3858 19.8364L17.3428 19.8412L17.3008 19.853C17.0407 19.9282 16.8059 20.0729 16.6212 20.2709C16.4488 20.4557 16.3277 20.6809 16.2657 20.9252L13.5958 28.9252L13.5919 28.937C13.5123 29.1975 13.5053 29.4754 13.5713 29.7397C13.6373 30.0033 13.7738 30.2438 13.9659 30.436V30.437C14.1583 30.6297 14.3999 30.7664 14.6641 30.8325C14.9282 30.8985 15.2055 30.8914 15.4659 30.812L15.4737 30.809L15.4815 30.8071L23.4561 28.0873L23.4571 28.0883C23.699 28.0084 23.9162 27.8674 24.0889 27.6801C24.2616 27.4928 24.3844 27.2647 24.4444 27.017C24.5044 26.7695 24.5004 26.5106 24.4327 26.2651C24.3649 26.0194 24.2352 25.7946 24.0567 25.6127L24.0547 25.6108L22.1348 23.6811L21.7794 23.3237L21.4249 23.6821L20.5645 24.5512C20.5181 24.5979 20.4632 24.6352 20.4024 24.6606C20.3415 24.686 20.276 24.6987 20.21 24.6987C20.144 24.6987 20.0786 24.686 20.0176 24.6606C19.9568 24.6352 19.901 24.5981 19.8546 24.5512L19.8516 24.5483C19.8049 24.5019 19.7676 24.446 19.7422 24.3852C19.7171 24.3245 19.7042 24.2595 19.7042 24.1938C19.7042 24.1279 19.717 24.0622 19.7422 24.0014C19.7675 23.9408 19.8041 23.8846 19.8506 23.8383L19.8516 23.8393L20.7217 22.9789L21.0792 22.6254L18.7217 20.268C18.4424 19.9911 18.0653 19.8351 17.6719 19.8334H17.671C17.5761 19.8264 17.4804 19.8261 17.3858 19.8364ZM29.0001 13.8276C28.802 13.8276 28.6057 13.8667 28.4229 13.9428C28.2402 14.019 28.074 14.1304 27.9346 14.2709L25.5255 16.6909C25.2483 16.9702 25.0916 17.3481 25.0899 17.7416V17.7455C25.0912 18.0404 25.1789 18.3286 25.3428 18.5737C25.5068 18.8187 25.7397 19.0098 26.0118 19.1235C26.2839 19.2371 26.5836 19.268 26.8731 19.2123C27.1627 19.1567 27.4291 19.0164 27.6397 18.81L27.6436 18.8071L29.9073 16.5434H29.9161L30.0626 16.3979C30.2029 16.2586 30.3146 16.0931 30.3907 15.9106C30.4668 15.7278 30.5059 15.5314 30.5059 15.3334C30.5059 15.1354 30.4668 14.9391 30.3907 14.7563C30.3145 14.5735 30.2022 14.4074 30.0616 14.268C29.9229 14.129 29.7584 14.0184 29.5772 13.9428C29.3944 13.8667 29.1981 13.8276 29.0001 13.8276Z" fill="#F5F6FA" stroke="#F5F6FA"/>
</svg>
