<svg width="45" height="45" viewBox="0 0 45 45" fill="none" xmlns="http://www.w3.org/2000/svg">
<rect x="0.5" y="0.777802" width="44" height="44" rx="12" fill="#B3DE96"/>
<path d="M15.5 13.2778H29.5C29.6326 13.2778 29.7597 13.3305 29.8535 13.4243C29.9473 13.5181 30 13.6452 30 13.7778V31.2778H31.5C31.6326 31.2778 31.7597 31.3305 31.8535 31.4243C31.9473 31.5181 32 31.6452 32 31.7778C32 31.9104 31.9473 32.0375 31.8535 32.1313C31.7597 32.2251 31.6326 32.2778 31.5 32.2778H13.5C13.3674 32.2778 13.2403 32.2251 13.1465 32.1313C13.0527 32.0375 13 31.9104 13 31.7778C13 31.6452 13.0527 31.5181 13.1465 31.4243C13.2403 31.3305 13.3674 31.2778 13.5 31.2778H15V13.7778C15 13.6452 15.0527 13.5181 15.1465 13.4243C15.2403 13.3305 15.3674 13.2778 15.5 13.2778ZM16 31.2778H20V25.7778C20 25.6452 20.0527 25.5181 20.1465 25.4243C20.2403 25.3305 20.3674 25.2778 20.5 25.2778H24.5C24.6326 25.2778 24.7597 25.3305 24.8535 25.4243C24.9473 25.5181 25 25.6452 25 25.7778V31.2778H29V14.2778H16V31.2778ZM21 31.2778H24V26.2778H21V31.2778ZM19.5 21.2778H20.5C20.6326 21.2778 20.7597 21.3305 20.8535 21.4243C20.9473 21.5181 21 21.6452 21 21.7778C21 21.9104 20.9473 22.0375 20.8535 22.1313C20.7597 22.2251 20.6326 22.2778 20.5 22.2778H19.5C19.3674 22.2778 19.2403 22.2251 19.1465 22.1313C19.0527 22.0375 19 21.9104 19 21.7778C19 21.6452 19.0527 21.5181 19.1465 21.4243C19.2403 21.3305 19.3674 21.2778 19.5 21.2778ZM24.5 21.2778H25.5C25.6326 21.2778 25.7597 21.3305 25.8535 21.4243C25.9473 21.5181 26 21.6452 26 21.7778C26 21.9104 25.9473 22.0375 25.8535 22.1313C25.7597 22.2251 25.6326 22.2778 25.5 22.2778H24.5C24.3674 22.2778 24.2403 22.2251 24.1465 22.1313C24.0527 22.0375 24 21.9104 24 21.7778C24 21.6452 24.0527 21.5181 24.1465 21.4243C24.2403 21.3305 24.3674 21.2778 24.5 21.2778ZM19.5 17.2778H20.5C20.6326 17.2778 20.7597 17.3305 20.8535 17.4243C20.9473 17.5181 21 17.6452 21 17.7778C21 17.9104 20.9473 18.0375 20.8535 18.1313C20.7597 18.2251 20.6326 18.2778 20.5 18.2778H19.5C19.3674 18.2778 19.2403 18.2251 19.1465 18.1313C19.0527 18.0375 19 17.9104 19 17.7778C19 17.6452 19.0527 17.5181 19.1465 17.4243C19.2403 17.3305 19.3674 17.2778 19.5 17.2778ZM24.5 17.2778H25.5C25.6326 17.2778 25.7597 17.3305 25.8535 17.4243C25.9473 17.5181 26 17.6452 26 17.7778C26 17.9104 25.9473 18.0375 25.8535 18.1313C25.7597 18.2251 25.6326 18.2778 25.5 18.2778H24.5C24.3674 18.2778 24.2403 18.2251 24.1465 18.1313C24.0527 18.0375 24 17.9104 24 17.7778C24 17.6452 24.0527 17.5181 24.1465 17.4243C24.2403 17.3305 24.3674 17.2778 24.5 17.2778Z" fill="#F5F6FA" stroke="#F5F6FA"/>
</svg>
