<svg width="45" height="45" viewBox="0 0 45 45" fill="none" xmlns="http://www.w3.org/2000/svg">
<rect x="0.75" y="0.666656" width="44" height="44" rx="12" fill="#FAAAEF"/>
<path d="M15.75 13.1667H29.75C29.8826 13.1667 30.0097 13.2194 30.1035 13.3131C30.1973 13.4069 30.25 13.534 30.25 13.6667V31.1667H31.75C31.8826 31.1667 32.0097 31.2194 32.1035 31.3131C32.1973 31.4069 32.25 31.534 32.25 31.6667C32.25 31.7993 32.1973 31.9264 32.1035 32.0202C32.0097 32.1139 31.8826 32.1667 31.75 32.1667H13.75C13.6174 32.1667 13.4903 32.1139 13.3965 32.0202C13.3027 31.9264 13.25 31.7993 13.25 31.6667C13.25 31.534 13.3027 31.4069 13.3965 31.3131C13.4903 31.2194 13.6174 31.1667 13.75 31.1667H15.25V13.6667C15.25 13.534 15.3027 13.4069 15.3965 13.3131C15.4903 13.2194 15.6174 13.1667 15.75 13.1667ZM16.25 31.1667H20.25V25.6667C20.25 25.534 20.3027 25.4069 20.3965 25.3131C20.4903 25.2194 20.6174 25.1667 20.75 25.1667H24.75C24.8826 25.1667 25.0097 25.2194 25.1035 25.3131C25.1973 25.4069 25.25 25.534 25.25 25.6667V31.1667H29.25V14.1667H16.25V31.1667ZM21.25 31.1667H24.25V26.1667H21.25V31.1667ZM19.75 21.1667H20.75C20.8826 21.1667 21.0097 21.2194 21.1035 21.3131C21.1973 21.4069 21.25 21.534 21.25 21.6667C21.25 21.7993 21.1973 21.9264 21.1035 22.0202C21.0097 22.1139 20.8826 22.1667 20.75 22.1667H19.75C19.6174 22.1667 19.4903 22.1139 19.3965 22.0202C19.3027 21.9264 19.25 21.7993 19.25 21.6667C19.25 21.534 19.3027 21.4069 19.3965 21.3131C19.4903 21.2194 19.6174 21.1667 19.75 21.1667ZM24.75 21.1667H25.75C25.8826 21.1667 26.0097 21.2194 26.1035 21.3131C26.1973 21.4069 26.25 21.534 26.25 21.6667C26.25 21.7993 26.1973 21.9264 26.1035 22.0202C26.0097 22.1139 25.8826 22.1667 25.75 22.1667H24.75C24.6174 22.1667 24.4903 22.1139 24.3965 22.0202C24.3027 21.9264 24.25 21.7993 24.25 21.6667C24.25 21.534 24.3027 21.4069 24.3965 21.3131C24.4903 21.2194 24.6174 21.1667 24.75 21.1667ZM19.75 17.1667H20.75C20.8826 17.1667 21.0097 17.2194 21.1035 17.3131C21.1973 17.4069 21.25 17.534 21.25 17.6667C21.25 17.7993 21.1973 17.9264 21.1035 18.0202C21.0097 18.1139 20.8826 18.1667 20.75 18.1667H19.75C19.6174 18.1667 19.4903 18.1139 19.3965 18.0202C19.3027 17.9264 19.25 17.7993 19.25 17.6667C19.25 17.534 19.3027 17.4069 19.3965 17.3131C19.4903 17.2194 19.6174 17.1667 19.75 17.1667ZM24.75 17.1667H25.75C25.8826 17.1667 26.0097 17.2194 26.1035 17.3131C26.1973 17.4069 26.25 17.534 26.25 17.6667C26.25 17.7993 26.1973 17.9264 26.1035 18.0202C26.0097 18.1139 25.8826 18.1667 25.75 18.1667H24.75C24.6174 18.1667 24.4903 18.1139 24.3965 18.0202C24.3027 17.9264 24.25 17.7993 24.25 17.6667C24.25 17.534 24.3027 17.4069 24.3965 17.3131C24.4903 17.2194 24.6174 17.1667 24.75 17.1667Z" fill="#F5F6FA" stroke="#F5F6FA"/>
</svg>
