<svg width="45" height="45" viewBox="0 0 45 45" fill="none" xmlns="http://www.w3.org/2000/svg">
<rect x="0.25" y="0.222221" width="44" height="44" rx="12" fill="#7287B1"/>
<path d="M29.2501 12.7565C29.9068 12.7565 30.5384 13.0072 31.0167 13.4567C31.4635 13.9196 31.7147 14.5368 31.7178 15.1803C31.7209 15.8267 31.4733 16.4497 31.0274 16.9176L28.628 19.3268C28.2613 19.6892 27.7917 19.9292 27.2833 20.0143C26.7746 20.0993 26.2519 20.025 25.7872 19.8014L25.4669 19.6481L25.2169 19.8991L23.0665 22.0485L22.713 22.402L25.0665 24.7555L25.0704 24.7604C25.3783 25.0611 25.6032 25.4361 25.7237 25.8493C25.8441 26.2622 25.8558 26.699 25.7579 27.1178C25.6598 27.5369 25.4554 27.9241 25.1641 28.2409C24.8729 28.5575 24.505 28.7936 24.0958 28.9264L24.0919 28.9274L16.0919 31.5876L16.085 31.5905C15.82 31.683 15.5405 31.7275 15.2598 31.7223H15.2422C14.9011 31.7277 14.5624 31.6632 14.2471 31.5329C13.9318 31.4025 13.6469 31.2083 13.4092 30.9635L13.4044 30.9596L13.2862 30.8317C13.0214 30.5262 12.834 30.1606 12.7413 29.7653C12.6353 29.3135 12.6565 28.8411 12.8038 28.401L12.8047 28.4001L15.4649 20.4001L15.4659 20.3961C15.5987 19.987 15.8348 19.619 16.1514 19.3278C16.4681 19.0366 16.8546 18.8321 17.2735 18.734C17.6924 18.636 18.13 18.6478 18.543 18.7682C18.9045 18.8736 19.2369 19.0593 19.5157 19.3102L19.6319 19.4215L19.6368 19.4254L21.9903 21.779L24.7442 19.0251L24.5909 18.7057C24.3673 18.241 24.293 17.7183 24.378 17.2096C24.4628 16.7023 24.7016 16.2332 25.0626 15.8669L27.4825 13.4567C27.9609 13.0069 28.5931 12.7565 29.2501 12.7565ZM17.6358 19.7253L17.5928 19.7301L17.5508 19.7419C17.2907 19.8171 17.0559 19.9618 16.8712 20.1598C16.6988 20.3445 16.5777 20.5698 16.5157 20.8141L13.8458 28.8141L13.8419 28.8258C13.7623 29.0863 13.7553 29.3643 13.8214 29.6286C13.8873 29.8922 14.0238 30.1327 14.2159 30.3249V30.3258C14.4083 30.5186 14.6499 30.6553 14.9141 30.7213C15.1782 30.7873 15.4555 30.7803 15.7159 30.7008L15.7237 30.6979L15.7315 30.696L23.7061 27.9762L23.7071 27.9772C23.949 27.8973 24.1662 27.7563 24.3389 27.569C24.5116 27.3817 24.6344 27.1535 24.6944 26.9059C24.7544 26.6584 24.7504 26.3995 24.6827 26.154C24.6149 25.9083 24.4852 25.6835 24.3067 25.5016L24.3047 25.4997L22.3848 23.57L22.0294 23.2126L21.6749 23.571L20.8145 24.4401C20.7681 24.4868 20.7132 24.5241 20.6524 24.5495C20.5915 24.5748 20.526 24.5876 20.46 24.5876C20.394 24.5876 20.3286 24.5749 20.2676 24.5495C20.2068 24.5241 20.151 24.4869 20.1046 24.4401L20.1016 24.4372C20.0549 24.3907 20.0176 24.3349 19.9922 24.2741C19.9671 24.2134 19.9542 24.1483 19.9542 24.0827C19.9542 24.0168 19.967 23.9511 19.9922 23.8903C20.0175 23.8297 20.0541 23.7735 20.1006 23.7272L20.1016 23.7282L20.9717 22.8678L21.3292 22.5143L18.9717 20.1569C18.6924 19.88 18.3153 19.724 17.9219 19.7223H17.921C17.8261 19.7153 17.7304 19.715 17.6358 19.7253ZM29.2501 13.7165C29.052 13.7165 28.8557 13.7555 28.6729 13.8317C28.4902 13.9078 28.324 14.0193 28.1846 14.1598L25.7755 16.5797C25.4983 16.8591 25.3416 17.237 25.3399 17.6305V17.6344C25.3412 17.9292 25.4289 18.2175 25.5928 18.4626C25.7568 18.7076 25.9897 18.8987 26.2618 19.0124C26.5339 19.126 26.8336 19.1569 27.1231 19.1012C27.4127 19.0456 27.6791 18.9053 27.8897 18.6989L27.8936 18.696L30.1573 16.4323H30.1661L30.3126 16.2868C30.4529 16.1475 30.5646 15.982 30.6407 15.7995C30.7168 15.6167 30.7559 15.4203 30.7559 15.2223C30.7559 15.0243 30.7168 14.828 30.6407 14.6452C30.5645 14.4624 30.4522 14.2963 30.3116 14.1569C30.1729 14.0179 30.0084 13.9072 29.8272 13.8317C29.6444 13.7555 29.4481 13.7165 29.2501 13.7165Z" fill="#E2E5EF" stroke="#E2E5EF"/>
</svg>
