<svg width="45" height="45" viewBox="0 0 45 45" fill="none" xmlns="http://www.w3.org/2000/svg">
<rect x="0.75" y="0.777802" width="44" height="44" rx="12" fill="#B3DE96"/>
<path d="M27.25 17.2774C26.3218 17.2774 25.4317 17.6465 24.7754 18.3028C24.1191 18.959 23.7501 19.8493 23.75 20.7774V24.7793C23.7521 25.5014 23.9778 26.205 24.3955 26.794C24.8132 27.3829 25.4023 27.8287 26.083 28.0694L26.75 28.3047V23.7774C26.7501 23.6449 26.8028 23.5175 26.8965 23.4239C26.9902 23.3302 27.1175 23.2774 27.25 23.2774C27.3825 23.2774 27.5098 23.3302 27.6035 23.4239C27.6972 23.5175 27.7499 23.6449 27.75 23.7774V28.3047L28.417 28.0694C29.0977 27.8287 29.6868 27.3829 30.1045 26.794C30.47 26.2786 30.6891 25.6754 30.7393 25.0489L30.75 24.7793V20.7774C30.7499 19.8493 30.3809 18.959 29.7246 18.3028C29.0683 17.6465 28.1782 17.2774 27.25 17.2774ZM20.126 14.3506C19.2517 14.1771 18.3455 14.2672 17.5225 14.6094C16.6993 14.9517 15.9965 15.5311 15.5029 16.2735C15.0098 17.0153 14.7475 17.8866 14.75 18.7774V22.7793C14.7532 23.7745 15.0866 24.7407 15.6973 25.5264C16.3079 26.312 17.1616 26.8733 18.125 27.1221L18.75 27.2832V23.7774C18.7501 23.6449 18.8028 23.5175 18.8965 23.4239C18.9902 23.3302 19.1175 23.2774 19.25 23.2774C19.3825 23.2774 19.5098 23.3302 19.6035 23.4239C19.6972 23.5175 19.7499 23.6449 19.75 23.7774V27.294L20.375 27.1319C21.2808 26.8972 22.0917 26.3856 22.6934 25.669L22.8398 25.4942L22.8037 25.2686C22.7768 25.1018 22.7589 24.9334 22.75 24.7647V20.7784C22.7514 19.8649 23.0306 18.9735 23.5508 18.2227L23.6719 18.0479L23.6309 17.8409C23.4617 16.9889 23.0456 16.2052 22.4355 15.5869L22.4336 15.584C21.8036 14.9534 21.0003 14.5242 20.126 14.3506ZM18.75 28.2657L18.333 28.1944C17.0525 27.9778 15.8896 27.3157 15.0508 26.3242C14.212 25.3327 13.7513 24.0761 13.75 22.7774V18.7852C13.7681 17.5283 14.2161 16.3153 15.0195 15.3487C15.823 14.382 16.9336 13.7193 18.166 13.4717C19.3984 13.2242 20.6785 13.4069 21.793 13.9883C22.9075 14.5697 23.7899 15.5156 24.292 16.668L24.5186 17.1885L25.0068 16.8965C25.5998 16.5416 26.2674 16.3332 26.9541 16.2871L27.25 16.2774C28.4434 16.2774 29.5877 16.752 30.4316 17.5957C31.2755 18.4395 31.7499 19.5841 31.75 20.7774V24.7784C31.7501 25.8154 31.392 26.8206 30.7363 27.6241C30.0804 28.4276 29.1666 28.98 28.1504 29.1875L27.75 29.2696V31.7774C27.75 31.9099 27.6971 32.0371 27.6035 32.1309C27.5097 32.2247 27.3826 32.2774 27.25 32.2774C27.1174 32.2774 26.9903 32.2247 26.8965 32.1309C26.8029 32.0371 26.75 31.9099 26.75 31.7774V29.2715L26.3525 29.1885C25.7579 29.0641 25.1943 28.8206 24.6963 28.4727C24.1982 28.1247 23.7754 27.6788 23.4541 27.1631L23.1553 26.6836L22.7158 27.0391C21.9776 27.6351 21.0989 28.0331 20.1641 28.1953L19.75 28.2666V31.7774C19.75 31.9099 19.6971 32.0371 19.6035 32.1309C19.5097 32.2247 19.3826 32.2774 19.25 32.2774C19.1174 32.2774 18.9903 32.2247 18.8965 32.1309C18.8029 32.0371 18.75 31.9099 18.75 31.7774V28.2657Z" fill="#F5F6FA" stroke="#F5F6FA"/>
</svg>
