<svg width="45" height="45" viewBox="0 0 45 45" fill="none" xmlns="http://www.w3.org/2000/svg">
<rect x="0.75" y="0.333344" width="44" height="44" rx="12" fill="#4FCCC4"/>
<path d="M27.25 16.8329C26.3218 16.8329 25.4317 17.2021 24.7754 17.8583C24.1191 18.5146 23.7501 19.4048 23.75 20.3329V24.3349C23.7521 25.0569 23.9778 25.7605 24.3955 26.3495C24.8132 26.9384 25.4023 27.3842 26.083 27.6249L26.75 27.8603V23.3329C26.7501 23.2005 26.8028 23.0731 26.8965 22.9794C26.9902 22.8858 27.1175 22.8329 27.25 22.8329C27.3825 22.8329 27.5098 22.8858 27.6035 22.9794C27.6972 23.0731 27.7499 23.2005 27.75 23.3329V27.8603L28.417 27.6249C29.0977 27.3842 29.6868 26.9384 30.1045 26.3495C30.47 25.8341 30.6891 25.231 30.7393 24.6044L30.75 24.3349V20.3329C30.7499 19.4048 30.3809 18.5146 29.7246 17.8583C29.0683 17.2021 28.1782 16.8329 27.25 16.8329ZM20.126 13.9062C19.2517 13.7326 18.3455 13.8228 17.5225 14.1649C16.6993 14.5072 15.9965 15.0866 15.5029 15.829C15.0098 16.5708 14.7475 17.4422 14.75 18.3329V22.3349C14.7532 23.33 15.0866 24.2962 15.6973 25.0819C16.3079 25.8675 17.1616 26.4289 18.125 26.6776L18.75 26.8388V23.3329C18.7501 23.2005 18.8028 23.0731 18.8965 22.9794C18.9902 22.8858 19.1175 22.8329 19.25 22.8329C19.3825 22.8329 19.5098 22.8858 19.6035 22.9794C19.6972 23.0731 19.7499 23.2005 19.75 23.3329V26.8495L20.375 26.6874C21.2808 26.4527 22.0917 25.9411 22.6934 25.2245L22.8398 25.0497L22.8037 24.8241C22.7768 24.6573 22.7589 24.4889 22.75 24.3202V20.3339C22.7514 19.4205 23.0306 18.5291 23.5508 17.7782L23.6719 17.6034L23.6309 17.3964C23.4617 16.5445 23.0456 15.7607 22.4355 15.1425L22.4336 15.1396C21.8036 14.509 21.0003 14.0797 20.126 13.9062ZM18.75 27.8212L18.333 27.7499C17.0525 27.5334 15.8896 26.8712 15.0508 25.8798C14.212 24.8883 13.7513 23.6317 13.75 22.3329V18.3407C13.7681 17.0839 14.2161 15.8709 15.0195 14.9042C15.823 13.9375 16.9336 13.2748 18.166 13.0273C19.3984 12.7797 20.6785 12.9625 21.793 13.5439C22.9075 14.1253 23.7899 15.0711 24.292 16.2235L24.5186 16.744L25.0068 16.4521C25.5998 16.0972 26.2674 15.8888 26.9541 15.8427L27.25 15.8329C28.4434 15.8329 29.5877 16.3075 30.4316 17.1513C31.2755 17.9951 31.7499 19.1396 31.75 20.3329V24.3339C31.7501 25.3709 31.392 26.3762 30.7363 27.1796C30.0804 27.9831 29.1666 28.5355 28.1504 28.7431L27.75 28.8251V31.3329C27.75 31.4654 27.6971 31.5927 27.6035 31.6864C27.5097 31.7802 27.3826 31.8329 27.25 31.8329C27.1174 31.8329 26.9903 31.7802 26.8965 31.6864C26.8029 31.5927 26.75 31.4654 26.75 31.3329V28.8271L26.3525 28.744C25.7579 28.6197 25.1943 28.3762 24.6963 28.0282C24.1982 27.6802 23.7754 27.2344 23.4541 26.7187L23.1553 26.2392L22.7158 26.5946C21.9776 27.1907 21.0989 27.5887 20.1641 27.7509L19.75 27.8222V31.3329C19.75 31.4654 19.6971 31.5927 19.6035 31.6864C19.5097 31.7802 19.3826 31.8329 19.25 31.8329C19.1174 31.8329 18.9903 31.7802 18.8965 31.6864C18.8029 31.5927 18.75 31.4654 18.75 31.3329V27.8212Z" fill="#F5F6FA" stroke="#F5F6FA"/>
</svg>
