<svg width="45" height="45" viewBox="0 0 45 45" fill="none" xmlns="http://www.w3.org/2000/svg">
<rect x="0.5" y="0.888885" width="44" height="44" rx="12" fill="#A69EF3"/>
<path d="M27 17.3884C26.0718 17.3884 25.1817 17.7576 24.5254 18.4138C23.8691 19.0701 23.5001 19.9603 23.5 20.8884V24.8904C23.5021 25.6125 23.7278 26.3161 24.1455 26.905C24.5632 27.4939 25.1523 27.9397 25.833 28.1804L26.5 28.4158V23.8884C26.5001 23.756 26.5528 23.6286 26.6465 23.5349C26.7402 23.4413 26.8675 23.3884 27 23.3884C27.1325 23.3884 27.2598 23.4413 27.3535 23.5349C27.4472 23.6286 27.4999 23.756 27.5 23.8884V28.4158L28.167 28.1804C28.8477 27.9397 29.4368 27.4939 29.8545 26.905C30.22 26.3896 30.4391 25.7865 30.4893 25.1599L30.5 24.8904V20.8884C30.4999 19.9603 30.1309 19.0701 29.4746 18.4138C28.8183 17.7576 27.9282 17.3884 27 17.3884ZM19.876 14.4617C19.0017 14.2882 18.0955 14.3783 17.2725 14.7205C16.4493 15.0627 15.7465 15.6422 15.2529 16.3845C14.7598 17.1264 14.4975 17.9977 14.5 18.8884V22.8904C14.5032 23.8855 14.8366 24.8517 15.4473 25.6375C16.0579 26.4231 16.9116 26.9844 17.875 27.2332L18.5 27.3943V23.8884C18.5001 23.756 18.5528 23.6286 18.6465 23.5349C18.7402 23.4413 18.8675 23.3884 19 23.3884C19.1325 23.3884 19.2598 23.4413 19.3535 23.5349C19.4472 23.6286 19.4999 23.756 19.5 23.8884V27.405L20.125 27.2429C21.0308 27.0082 21.8417 26.4966 22.4434 25.78L22.5898 25.6052L22.5537 25.3797C22.5268 25.2129 22.5089 25.0445 22.5 24.8757V20.8894C22.5014 19.976 22.7806 19.0846 23.3008 18.3338L23.4219 18.159L23.3809 17.9519C23.2117 17.1 22.7956 16.3163 22.1855 15.698L22.1836 15.6951C21.5536 15.0645 20.7503 14.6352 19.876 14.4617ZM18.5 28.3767L18.083 28.3054C16.8025 28.0889 15.6396 27.4268 14.8008 26.4353C13.962 25.4438 13.5013 24.1872 13.5 22.8884V18.8963C13.5181 17.6394 13.9661 16.4264 14.7695 15.4597C15.573 14.4931 16.6836 13.8304 17.916 13.5828C19.1484 13.3352 20.4285 13.518 21.543 14.0994C22.6575 14.6808 23.5399 15.6266 24.042 16.7791L24.2686 17.2996L24.7568 17.0076C25.3498 16.6527 26.0174 16.4443 26.7041 16.3982L27 16.3884C28.1934 16.3884 29.3377 16.863 30.1816 17.7068C31.0255 18.5506 31.4999 19.6951 31.5 20.8884V24.8894C31.5001 25.9265 31.142 26.9317 30.4863 27.7351C29.8304 28.5386 28.9166 29.0911 27.9004 29.2986L27.5 29.3806V31.8884C27.5 32.0209 27.4471 32.1482 27.3535 32.242C27.2597 32.3357 27.1326 32.3884 27 32.3884C26.8674 32.3884 26.7403 32.3357 26.6465 32.242C26.5529 32.1482 26.5 32.0209 26.5 31.8884V29.3826L26.1025 29.2996C25.5079 29.1752 24.9443 28.9317 24.4463 28.5838C23.9482 28.2357 23.5254 27.7899 23.2041 27.2742L22.9053 26.7947L22.4658 27.1502C21.7276 27.7462 20.8489 28.1442 19.9141 28.3064L19.5 28.3777V31.8884C19.5 32.0209 19.4471 32.1482 19.3535 32.242C19.2597 32.3357 19.1326 32.3884 19 32.3884C18.8674 32.3884 18.7403 32.3357 18.6465 32.242C18.5529 32.1482 18.5 32.0209 18.5 31.8884V28.3767Z" fill="#F5F6FA" stroke="#F5F6FA"/>
</svg>
