<svg width="44" height="45" viewBox="0 0 44 45" fill="none" xmlns="http://www.w3.org/2000/svg">
<rect y="0.111115" width="44" height="44" rx="12" fill="#9ADBD7"/>
<path d="M21.9996 12.6124C22.1209 12.6124 22.2385 12.6564 22.3297 12.7364L31.3278 20.7344L31.3287 20.7354C31.4052 20.8031 31.4589 20.893 31.483 20.9922C31.5011 21.0666 31.5023 21.1438 31.486 21.2178L31.4635 21.2911C31.4273 21.3849 31.3636 21.4654 31.2809 21.5225C31.198 21.5796 31.0993 21.6111 30.9987 21.6114H29.4996V31.1114C29.4996 31.2439 29.4469 31.3712 29.3532 31.4649C29.2594 31.5585 29.1321 31.6114 28.9996 31.6114H14.9996C14.8672 31.6113 14.7398 31.5586 14.6461 31.4649C14.5524 31.3712 14.4997 31.2439 14.4996 31.1114V21.6114H13.0016C12.9009 21.6111 12.8023 21.5796 12.7194 21.5225C12.6574 21.4798 12.606 21.4242 12.569 21.3594L12.5367 21.2911L12.5143 21.2178C12.4979 21.1437 12.4992 21.0666 12.5172 20.9922C12.5413 20.893 12.595 20.8031 12.6715 20.7354L12.6725 20.7344L21.6725 12.7344L21.6715 12.7335C21.7623 12.6547 21.8794 12.6125 21.9996 12.6124ZM15.4996 30.6114H19.4996V27.1114C19.4996 26.4485 19.7634 25.8126 20.2321 25.3438C20.7008 24.8751 21.3367 24.6115 21.9996 24.6114C22.6627 24.6114 23.2994 24.875 23.7682 25.3438C24.2367 25.8126 24.4996 26.4486 24.4996 27.1114V30.6114H28.4996V21.6114H15.4996V30.6114ZM21.9996 25.6114C21.6019 25.6115 21.2203 25.7696 20.9391 26.0508C20.658 26.3321 20.4996 26.7137 20.4996 27.1114V30.6114H23.4996V27.1114C23.4996 26.7136 23.3415 26.3321 23.0602 26.0508C22.7789 25.7696 22.3974 25.6114 21.9996 25.6114ZM21.6676 14.0772L15.2975 19.7374L14.3141 20.6114H29.6852L28.7018 19.7374L22.3317 14.0772L21.9996 13.7823L21.6676 14.0772Z" fill="#F5F6FA" stroke="#F5F6FA"/>
</svg>
