<svg width="45" height="45" viewBox="0 0 45 45" fill="none" xmlns="http://www.w3.org/2000/svg">
<rect x="0.25" y="0.666656" width="44" height="44" rx="12" fill="#FAAAEF"/>
<path d="M29.2501 13.2009C29.9068 13.2009 30.5384 13.4516 31.0167 13.9011C31.4635 14.364 31.7147 14.9812 31.7178 15.6248C31.7209 16.2711 31.4733 16.8941 31.0274 17.3621L28.628 19.7712C28.2613 20.1336 27.7917 20.3737 27.2833 20.4587C26.7746 20.5438 26.2519 20.4694 25.7872 20.2458L25.4669 20.0925L25.2169 20.3435L23.0665 22.4929L22.713 22.8464L25.0665 25.2L25.0704 25.2048C25.3783 25.5055 25.6032 25.8806 25.7237 26.2937C25.8441 26.7067 25.8558 27.1434 25.7579 27.5623C25.6598 27.9813 25.4554 28.3685 25.1641 28.6853C24.8729 29.002 24.505 29.2381 24.0958 29.3708L24.0919 29.3718L16.0919 32.032L16.085 32.0349C15.82 32.1275 15.5405 32.1719 15.2598 32.1667H15.2422C14.9011 32.1721 14.5624 32.1077 14.2471 31.9773C13.9318 31.8469 13.6469 31.6528 13.4092 31.408L13.4044 31.4041L13.2862 31.2761C13.0214 30.9706 12.834 30.605 12.7413 30.2097C12.6353 29.7579 12.6565 29.2855 12.8038 28.8455L12.8047 28.8445L15.4649 20.8445L15.4659 20.8406C15.5987 20.4314 15.8348 20.0634 16.1514 19.7722C16.4681 19.481 16.8546 19.2766 17.2735 19.1785C17.6924 19.0804 18.13 19.0923 18.543 19.2126C18.9045 19.318 19.2369 19.5037 19.5157 19.7546L19.6319 19.866L19.6368 19.8699L21.9903 22.2234L24.7442 19.4695L24.5909 19.1501C24.3673 18.6854 24.293 18.1627 24.378 17.6541C24.4628 17.1467 24.7016 16.6776 25.0626 16.3113L27.4825 13.9011C27.9609 13.4513 28.5931 13.2009 29.2501 13.2009ZM17.6358 20.1697L17.5928 20.1746L17.5508 20.1863C17.2907 20.2615 17.0559 20.4063 16.8712 20.6042C16.6988 20.789 16.5777 21.0142 16.5157 21.2585L13.8458 29.2585L13.8419 29.2703C13.7623 29.5308 13.7553 29.8087 13.8214 30.073C13.8873 30.3366 14.0238 30.5772 14.2159 30.7693V30.7703C14.4083 30.963 14.6499 31.0997 14.9141 31.1658C15.1782 31.2318 15.4555 31.2247 15.7159 31.1453L15.7237 31.1423L15.7315 31.1404L23.7061 28.4207L23.7071 28.4216C23.949 28.3417 24.1662 28.2008 24.3389 28.0134C24.5116 27.8261 24.6344 27.598 24.6944 27.3503C24.7544 27.1028 24.7504 26.8439 24.6827 26.5984C24.6149 26.3527 24.4852 26.1279 24.3067 25.946L24.3047 25.9441L22.3848 24.0144L22.0294 23.657L21.6749 24.0154L20.8145 24.8845C20.7681 24.9312 20.7132 24.9686 20.6524 24.9939C20.5915 25.0193 20.526 25.032 20.46 25.032C20.394 25.032 20.3286 25.0193 20.2676 24.9939C20.2068 24.9685 20.151 24.9314 20.1046 24.8845L20.1016 24.8816C20.0549 24.8352 20.0176 24.7793 19.9922 24.7185C19.9671 24.6579 19.9542 24.5928 19.9542 24.5271C19.9542 24.4613 19.967 24.3955 19.9922 24.3347C20.0175 24.2741 20.0541 24.218 20.1006 24.1716L20.1016 24.1726L20.9717 23.3123L21.3292 22.9587L18.9717 20.6013C18.6924 20.3244 18.3153 20.1684 17.9219 20.1667H17.921C17.8261 20.1597 17.7304 20.1594 17.6358 20.1697ZM29.2501 14.1609C29.052 14.1609 28.8557 14.2 28.6729 14.2761C28.4902 14.3523 28.324 14.4637 28.1846 14.6042L25.7755 17.0242C25.4983 17.3036 25.3416 17.6814 25.3399 18.075V18.0789C25.3412 18.3737 25.4289 18.6619 25.5928 18.907C25.7568 19.152 25.9897 19.3432 26.2618 19.4568C26.5339 19.5704 26.8336 19.6013 27.1231 19.5457C27.4127 19.49 27.6791 19.3497 27.8897 19.1433L27.8936 19.1404L30.1573 16.8767H30.1661L30.3126 16.7312C30.4529 16.5919 30.5646 16.4264 30.6407 16.2439C30.7168 16.0611 30.7559 15.8647 30.7559 15.6667C30.7559 15.4687 30.7168 15.2724 30.6407 15.0896C30.5645 14.9068 30.4522 14.7407 30.3116 14.6013C30.1729 14.4624 30.0084 14.3517 29.8272 14.2761C29.6444 14.2 29.4481 14.1609 29.2501 14.1609Z" fill="#F5F6FA" stroke="#F5F6FA"/>
</svg>
