<svg width="45" height="45" viewBox="0 0 45 45" fill="none" xmlns="http://www.w3.org/2000/svg">
<rect x="0.5" y="0.444443" width="44" height="44" rx="12" fill="#F26FB1"/>
<path d="M27 16.944C26.0718 16.944 25.1817 17.3132 24.5254 17.9694C23.8691 18.6257 23.5001 19.5159 23.5 20.444V24.446C23.5021 25.168 23.7278 25.8716 24.1455 26.4606C24.5632 27.0495 25.1523 27.4953 25.833 27.736L26.5 27.9714V23.444C26.5001 23.3116 26.5528 23.1842 26.6465 23.0905C26.7402 22.9969 26.8675 22.944 27 22.944C27.1325 22.944 27.2598 22.9969 27.3535 23.0905C27.4472 23.1842 27.4999 23.3116 27.5 23.444V27.9714L28.167 27.736C28.8477 27.4953 29.4368 27.0495 29.8545 26.4606C30.22 25.9452 30.4391 25.3421 30.4893 24.7155L30.5 24.446V20.444C30.4999 19.5159 30.1309 18.6257 29.4746 17.9694C28.8183 17.3132 27.9282 16.944 27 16.944ZM19.876 14.0173C19.0017 13.8437 18.0955 13.9339 17.2725 14.276C16.4493 14.6183 15.7465 15.1977 15.2529 15.9401C14.7598 16.6819 14.4975 17.5532 14.5 18.444V22.446C14.5032 23.4411 14.8366 24.4073 15.4473 25.193C16.0579 25.9786 16.9116 26.54 17.875 26.7887L18.5 26.9499V23.444C18.5001 23.3116 18.5528 23.1842 18.6465 23.0905C18.7402 22.9969 18.8675 22.944 19 22.944C19.1325 22.944 19.2598 22.9969 19.3535 23.0905C19.4472 23.1842 19.4999 23.3116 19.5 23.444V26.9606L20.125 26.7985C21.0308 26.5638 21.8417 26.0522 22.4434 25.3356L22.5898 25.1608L22.5537 24.9352C22.5268 24.7684 22.5089 24.6 22.5 24.4313V20.445C22.5014 19.5316 22.7806 18.6402 23.3008 17.8893L23.4219 17.7145L23.3809 17.5075C23.2117 16.6555 22.7956 15.8718 22.1855 15.2536L22.1836 15.2506C21.5536 14.6201 20.7503 14.1908 19.876 14.0173ZM18.5 27.9323L18.083 27.861C16.8025 27.6445 15.6396 26.9823 14.8008 25.9909C13.962 24.9994 13.5013 23.7428 13.5 22.444V18.4518C13.5181 17.195 13.9661 15.982 14.7695 15.0153C15.573 14.0486 16.6836 13.3859 17.916 13.1383C19.1484 12.8908 20.4285 13.0736 21.543 13.6549C22.6575 14.2364 23.5399 15.1822 24.042 16.3346L24.2686 16.8551L24.7568 16.5631C25.3498 16.2083 26.0174 15.9999 26.7041 15.9538L27 15.944C28.1934 15.944 29.3377 16.4186 30.1816 17.2624C31.0255 18.1062 31.4999 19.2507 31.5 20.444V24.445C31.5001 25.482 31.142 26.4873 30.4863 27.2907C29.8304 28.0942 28.9166 28.6466 27.9004 28.8542L27.5 28.9362V31.444C27.5 31.5765 27.4471 31.7038 27.3535 31.7975C27.2597 31.8913 27.1326 31.944 27 31.944C26.8674 31.944 26.7403 31.8913 26.6465 31.7975C26.5529 31.7038 26.5 31.5765 26.5 31.444V28.9381L26.1025 28.8551C25.5079 28.7308 24.9443 28.4873 24.4463 28.1393C23.9482 27.7913 23.5254 27.3455 23.2041 26.8298L22.9053 26.3503L22.4658 26.7057C21.7276 27.3018 20.8489 27.6997 19.9141 27.862L19.5 27.9333V31.444C19.5 31.5765 19.4471 31.7038 19.3535 31.7975C19.2597 31.8913 19.1326 31.944 19 31.944C18.8674 31.944 18.7403 31.8913 18.6465 31.7975C18.5529 31.7038 18.5 31.5765 18.5 31.444V27.9323Z" fill="#D5DAE8" stroke="#E2E5EF"/>
</svg>
