<svg width="45" height="45" viewBox="0 0 45 45" fill="none" xmlns="http://www.w3.org/2000/svg">
<rect x="0.5" y="0.222221" width="44" height="44" rx="12" fill="#7287B1"/>
<path d="M27 16.7218C26.0718 16.7218 25.1817 17.0909 24.5254 17.7472C23.8691 18.4035 23.5001 19.2937 23.5 20.2218V24.2237C23.5021 24.9458 23.7278 25.6494 24.1455 26.2384C24.5632 26.8273 25.1523 27.2731 25.833 27.5138L26.5 27.7491V23.2218C26.5001 23.0893 26.5528 22.9619 26.6465 22.8683C26.7402 22.7746 26.8675 22.7218 27 22.7218C27.1325 22.7218 27.2598 22.7746 27.3535 22.8683C27.4472 22.9619 27.4999 23.0893 27.5 23.2218V27.7491L28.167 27.5138C28.8477 27.2731 29.4368 26.8273 29.8545 26.2384C30.22 25.723 30.4391 25.1198 30.4893 24.4933L30.5 24.2237V20.2218C30.4999 19.2937 30.1309 18.4035 29.4746 17.7472C28.8183 17.0909 27.9282 16.7218 27 16.7218ZM19.876 13.795C19.0017 13.6215 18.0955 13.7116 17.2725 14.0538C16.4493 14.3961 15.7465 14.9755 15.2529 15.7179C14.7598 16.4597 14.4975 17.331 14.5 18.2218V22.2237C14.5032 23.2189 14.8366 24.1851 15.4473 24.9708C16.0579 25.7564 16.9116 26.3178 17.875 26.5665L18.5 26.7276V23.2218C18.5001 23.0893 18.5528 22.9619 18.6465 22.8683C18.7402 22.7746 18.8675 22.7218 19 22.7218C19.1325 22.7218 19.2598 22.7746 19.3535 22.8683C19.4472 22.9619 19.4999 23.0893 19.5 23.2218V26.7384L20.125 26.5763C21.0308 26.3416 21.8417 25.83 22.4434 25.1134L22.5898 24.9386L22.5537 24.713C22.5268 24.5462 22.5089 24.3778 22.5 24.2091V20.2228C22.5014 19.3094 22.7806 18.4179 23.3008 17.6671L23.4219 17.4923L23.3809 17.2853C23.2117 16.4333 22.7956 15.6496 22.1855 15.0314L22.1836 15.0284C21.5536 14.3979 20.7503 13.9686 19.876 13.795ZM18.5 27.7101L18.083 27.6388C16.8025 27.4222 15.6396 26.7601 14.8008 25.7687C13.962 24.7771 13.5013 23.5205 13.5 22.2218V18.2296C13.5181 16.9727 13.9661 15.7598 14.7695 14.7931C15.573 13.8264 16.6836 13.1637 17.916 12.9161C19.1484 12.6686 20.4285 12.8513 21.543 13.4327C22.6575 14.0142 23.5399 14.96 24.042 16.1124L24.2686 16.6329L24.7568 16.3409C25.3498 15.986 26.0174 15.7776 26.7041 15.7316L27 15.7218C28.1934 15.7218 29.3377 16.1964 30.1816 17.0401C31.0255 17.884 31.4999 19.0285 31.5 20.2218V24.2228C31.5001 25.2598 31.142 26.265 30.4863 27.0685C29.8304 27.872 28.9166 28.4244 27.9004 28.6319L27.5 28.714V31.2218C27.5 31.3543 27.4471 31.4816 27.3535 31.5753C27.2597 31.6691 27.1326 31.7218 27 31.7218C26.8674 31.7218 26.7403 31.6691 26.6465 31.5753C26.5529 31.4816 26.5 31.3543 26.5 31.2218V28.7159L26.1025 28.6329C25.5079 28.5085 24.9443 28.265 24.4463 27.9171C23.9482 27.5691 23.5254 27.1232 23.2041 26.6075L22.9053 26.128L22.4658 26.4835C21.7276 27.0796 20.8489 27.4775 19.9141 27.6398L19.5 27.711V31.2218C19.5 31.3543 19.4471 31.4816 19.3535 31.5753C19.2597 31.6691 19.1326 31.7218 19 31.7218C18.8674 31.7218 18.7403 31.6691 18.6465 31.5753C18.5529 31.4816 18.5 31.3543 18.5 31.2218V27.7101Z" fill="black" stroke="#E2E5EF"/>
</svg>
