<svg width="45" height="45" viewBox="0 0 45 45" fill="none" xmlns="http://www.w3.org/2000/svg">
<rect x="0.75" y="0.222221" width="44" height="44" rx="12" fill="#7287B1"/>
<path d="M15.75 12.7222H29.75C29.8826 12.7222 30.0097 12.7749 30.1035 12.8687C30.1973 12.9625 30.25 13.0896 30.25 13.2222V30.7222H31.75C31.8826 30.7222 32.0097 30.7749 32.1035 30.8687C32.1973 30.9625 32.25 31.0896 32.25 31.2222C32.25 31.3548 32.1973 31.482 32.1035 31.5757C32.0097 31.6695 31.8826 31.7222 31.75 31.7222H13.75C13.6174 31.7222 13.4903 31.6695 13.3965 31.5757C13.3027 31.482 13.25 31.3548 13.25 31.2222C13.25 31.0896 13.3027 30.9625 13.3965 30.8687C13.4903 30.7749 13.6174 30.7222 13.75 30.7222H15.25V13.2222C15.25 13.0896 15.3027 12.9625 15.3965 12.8687C15.4903 12.7749 15.6174 12.7222 15.75 12.7222ZM16.25 30.7222H20.25V25.2222C20.25 25.0896 20.3027 24.9625 20.3965 24.8687C20.4903 24.7749 20.6174 24.7222 20.75 24.7222H24.75C24.8826 24.7222 25.0097 24.7749 25.1035 24.8687C25.1973 24.9625 25.25 25.0896 25.25 25.2222V30.7222H29.25V13.7222H16.25V30.7222ZM21.25 30.7222H24.25V25.7222H21.25V30.7222ZM19.75 20.7222H20.75C20.8826 20.7222 21.0097 20.7749 21.1035 20.8687C21.1973 20.9625 21.25 21.0896 21.25 21.2222C21.25 21.3548 21.1973 21.482 21.1035 21.5757C21.0097 21.6695 20.8826 21.7222 20.75 21.7222H19.75C19.6174 21.7222 19.4903 21.6695 19.3965 21.5757C19.3027 21.482 19.25 21.3548 19.25 21.2222C19.25 21.0896 19.3027 20.9625 19.3965 20.8687C19.4903 20.7749 19.6174 20.7222 19.75 20.7222ZM24.75 20.7222H25.75C25.8826 20.7222 26.0097 20.7749 26.1035 20.8687C26.1973 20.9625 26.25 21.0896 26.25 21.2222C26.25 21.3548 26.1973 21.482 26.1035 21.5757C26.0097 21.6695 25.8826 21.7222 25.75 21.7222H24.75C24.6174 21.7222 24.4903 21.6695 24.3965 21.5757C24.3027 21.482 24.25 21.3548 24.25 21.2222C24.25 21.0896 24.3027 20.9625 24.3965 20.8687C24.4903 20.7749 24.6174 20.7222 24.75 20.7222ZM19.75 16.7222H20.75C20.8826 16.7222 21.0097 16.7749 21.1035 16.8687C21.1973 16.9625 21.25 17.0896 21.25 17.2222C21.25 17.3548 21.1973 17.482 21.1035 17.5757C21.0097 17.6695 20.8826 17.7222 20.75 17.7222H19.75C19.6174 17.7222 19.4903 17.6695 19.3965 17.5757C19.3027 17.482 19.25 17.3548 19.25 17.2222C19.25 17.0896 19.3027 16.9625 19.3965 16.8687C19.4903 16.7749 19.6174 16.7222 19.75 16.7222ZM24.75 16.7222H25.75C25.8826 16.7222 26.0097 16.7749 26.1035 16.8687C26.1973 16.9625 26.25 17.0896 26.25 17.2222C26.25 17.3548 26.1973 17.482 26.1035 17.5757C26.0097 17.6695 25.8826 17.7222 25.75 17.7222H24.75C24.6174 17.7222 24.4903 17.6695 24.3965 17.5757C24.3027 17.482 24.25 17.3548 24.25 17.2222C24.25 17.0896 24.3027 16.9625 24.3965 16.8687C24.4903 16.7749 24.6174 16.7222 24.75 16.7222Z" fill="black" stroke="#E2E5EF"/>
</svg>
