<svg width="45" height="44" viewBox="0 0 45 44" fill="none" xmlns="http://www.w3.org/2000/svg">
<rect x="0.25" width="44" height="44" rx="12" fill="#A6B4CD"/>
<path d="M29.2501 12.5343C29.9068 12.5343 30.5384 12.785 31.0167 13.2345C31.4635 13.6974 31.7147 14.3145 31.7178 14.9581C31.7209 15.6045 31.4733 16.2275 31.0274 16.6954L28.628 19.1046C28.2613 19.467 27.7917 19.707 27.2833 19.7921C26.7746 19.8771 26.2519 19.8028 25.7872 19.5792L25.4669 19.4259L25.2169 19.6769L23.0665 21.8263L22.713 22.1798L25.0665 24.5333L25.0704 24.5382C25.3783 24.8388 25.6032 25.2139 25.7237 25.6271C25.8441 26.04 25.8558 26.4768 25.7579 26.8956C25.6598 27.3146 25.4554 27.7019 25.1641 28.0187C24.8729 28.3353 24.505 28.5714 24.0958 28.7042L24.0919 28.7052L16.0919 31.3653L16.085 31.3683C15.82 31.4608 15.5405 31.5053 15.2598 31.5001H15.2422C14.9011 31.5055 14.5624 31.441 14.2471 31.3106C13.9318 31.1802 13.6469 30.9861 13.4092 30.7413L13.4044 30.7374L13.2862 30.6095C13.0214 30.304 12.834 29.9383 12.7413 29.5431C12.6353 29.0913 12.6565 28.6189 12.8038 28.1788L12.8047 28.1778L15.4649 20.1778L15.4659 20.1739C15.5987 19.7648 15.8348 19.3967 16.1514 19.1056C16.4681 18.8144 16.8546 18.6099 17.2735 18.5118C17.6924 18.4138 18.13 18.4256 18.543 18.546C18.9045 18.6514 19.2369 18.837 19.5157 19.088L19.6319 19.1993L19.6368 19.2032L21.9903 21.5567L24.7442 18.8028L24.5909 18.4835C24.3673 18.0188 24.293 17.4961 24.378 16.9874C24.4628 16.4801 24.7016 16.011 25.0626 15.6446L27.4825 13.2345C27.9609 12.7847 28.5931 12.5343 29.2501 12.5343ZM17.6358 19.503L17.5928 19.5079L17.5508 19.5196C17.2907 19.5949 17.0559 19.7396 16.8712 19.9376C16.6988 20.1223 16.5777 20.3476 16.5157 20.5919L13.8458 28.5919L13.8419 28.6036C13.7623 28.8641 13.7553 29.1421 13.8214 29.4063C13.8873 29.6699 14.0238 29.9105 14.2159 30.1026V30.1036C14.4083 30.2964 14.6499 30.4331 14.9141 30.4991C15.1782 30.5651 15.4555 30.5581 15.7159 30.4786L15.7237 30.4757L15.7315 30.4737L23.7061 27.754L23.7071 27.755C23.949 27.675 24.1662 27.5341 24.3389 27.3468C24.5116 27.1594 24.6344 26.9313 24.6944 26.6837C24.7544 26.4362 24.7504 26.1773 24.6827 25.9317C24.6149 25.6861 24.4852 25.4613 24.3067 25.2794L24.3047 25.2774L22.3848 23.3478L22.0294 22.9903L21.6749 23.3487L20.8145 24.2179C20.7681 24.2646 20.7132 24.3019 20.6524 24.3272C20.5915 24.3526 20.526 24.3653 20.46 24.3653C20.394 24.3653 20.3286 24.3526 20.2676 24.3272C20.2068 24.3019 20.151 24.2647 20.1046 24.2179L20.1016 24.2149C20.0549 24.1685 20.0176 24.1127 19.9922 24.0519C19.9671 23.9912 19.9542 23.9261 19.9542 23.8605C19.9542 23.7946 19.967 23.7289 19.9922 23.6681C20.0175 23.6074 20.0541 23.5513 20.1006 23.505L20.1016 23.506L20.9717 22.6456L21.3292 22.2921L18.9717 19.9347C18.6924 19.6578 18.3153 19.5018 17.9219 19.5001H17.921C17.8261 19.4931 17.7304 19.4928 17.6358 19.503ZM29.2501 13.4942C29.052 13.4942 28.8557 13.5333 28.6729 13.6095C28.4902 13.6856 28.324 13.797 28.1846 13.9376L25.7755 16.3575C25.4983 16.6369 25.3416 17.0148 25.3399 17.4083V17.4122C25.3412 17.707 25.4289 17.9953 25.5928 18.2403C25.7568 18.4854 25.9897 18.6765 26.2618 18.7901C26.5339 18.9038 26.8336 18.9347 27.1231 18.879C27.4127 18.8233 27.6791 18.6831 27.8897 18.4767L27.8936 18.4737L30.1573 16.2101H30.1661L30.3126 16.0646C30.4529 15.9253 30.5646 15.7597 30.6407 15.5772C30.7168 15.3945 30.7559 15.1981 30.7559 15.0001C30.7559 14.8021 30.7168 14.6057 30.6407 14.423C30.5645 14.2402 30.4522 14.0741 30.3116 13.9347C30.1729 13.7957 30.0084 13.685 29.8272 13.6095C29.6444 13.5333 29.4481 13.4942 29.2501 13.4942Z" fill="#F5F6FA" stroke="#F5F6FA"/>
</svg>
