<svg width="44" height="44" viewBox="0 0 44 44" fill="none" xmlns="http://www.w3.org/2000/svg">
<rect width="44" height="44" rx="12" fill="#A6B4CD"/>
<path d="M21.9996 12.5013C22.1209 12.5013 22.2385 12.5453 22.3297 12.6253L31.3278 20.6233L31.3287 20.6243C31.4052 20.692 31.4589 20.7819 31.483 20.8811C31.5011 20.9555 31.5023 21.0327 31.486 21.1067L31.4635 21.18C31.4273 21.2738 31.3636 21.3543 31.2809 21.4114C31.198 21.4685 31.0993 21.5 30.9987 21.5003H29.4996V31.0003C29.4996 31.1328 29.4469 31.2601 29.3532 31.3538C29.2594 31.4474 29.1321 31.5003 28.9996 31.5003H14.9996C14.8672 31.5002 14.7398 31.4475 14.6461 31.3538C14.5524 31.2601 14.4997 31.1328 14.4996 31.0003V21.5003H13.0016C12.9009 21.5 12.8023 21.4685 12.7194 21.4114C12.6574 21.3687 12.606 21.3131 12.569 21.2483L12.5367 21.18L12.5143 21.1067C12.4979 21.0326 12.4992 20.9555 12.5172 20.8811C12.5413 20.7819 12.595 20.692 12.6715 20.6243L12.6725 20.6233L21.6725 12.6233L21.6715 12.6224C21.7623 12.5436 21.8794 12.5014 21.9996 12.5013ZM15.4996 30.5003H19.4996V27.0003C19.4996 26.3374 19.7634 25.7015 20.2321 25.2327C20.7008 24.764 21.3367 24.5004 21.9996 24.5003C22.6627 24.5003 23.2994 24.7639 23.7682 25.2327C24.2367 25.7015 24.4996 26.3375 24.4996 27.0003V30.5003H28.4996V21.5003H15.4996V30.5003ZM21.9996 25.5003C21.6019 25.5004 21.2203 25.6585 20.9391 25.9397C20.658 26.221 20.4996 26.6026 20.4996 27.0003V30.5003H23.4996V27.0003C23.4996 26.6025 23.3415 26.221 23.0602 25.9397C22.7789 25.6585 22.3974 25.5003 21.9996 25.5003ZM21.6676 13.9661L15.2975 19.6263L14.3141 20.5003H29.6852L28.7018 19.6263L22.3317 13.9661L21.9996 13.6712L21.6676 13.9661Z" fill="black" stroke="#F5F6FA"/>
</svg>
