<svg width="45" height="44" viewBox="0 0 45 44" fill="none" xmlns="http://www.w3.org/2000/svg">
<rect x="0.5" width="44" height="44" rx="12" fill="#A6B4CD"/>
<path d="M27 16.4996C26.0718 16.4996 25.1817 16.8687 24.5254 17.525C23.8691 18.1812 23.5001 19.0715 23.5 19.9996V24.0015C23.5021 24.7236 23.7278 25.4272 24.1455 26.0162C24.5632 26.6051 25.1523 27.0508 25.833 27.2916L26.5 27.5269V22.9996C26.5001 22.8671 26.5528 22.7397 26.6465 22.646C26.7402 22.5524 26.8675 22.4996 27 22.4996C27.1325 22.4996 27.2598 22.5524 27.3535 22.646C27.4472 22.7397 27.4999 22.8671 27.5 22.9996V27.5269L28.167 27.2916C28.8477 27.0508 29.4368 26.6051 29.8545 26.0162C30.22 25.5007 30.4391 24.8976 30.4893 24.271L30.5 24.0015V19.9996C30.4999 19.0715 30.1309 18.1812 29.4746 17.525C28.8183 16.8687 27.9282 16.4996 27 16.4996ZM19.876 13.5728C19.0017 13.3993 18.0955 13.4894 17.2725 13.8316C16.4493 14.1739 15.7465 14.7533 15.2529 15.4957C14.7598 16.2375 14.4975 17.1088 14.5 17.9996V22.0015C14.5032 22.9966 14.8366 23.9629 15.4473 24.7486C16.0579 25.5342 16.9116 26.0955 17.875 26.3443L18.5 26.5054V22.9996C18.5001 22.8671 18.5528 22.7397 18.6465 22.646C18.7402 22.5524 18.8675 22.4996 19 22.4996C19.1325 22.4996 19.2598 22.5524 19.3535 22.646C19.4472 22.7397 19.4999 22.8671 19.5 22.9996V26.5162L20.125 26.3541C21.0308 26.1193 21.8417 25.6077 22.4434 24.8912L22.5898 24.7164L22.5537 24.4908C22.5268 24.324 22.5089 24.1556 22.5 23.9869V20.0005C22.5014 19.0871 22.7806 18.1957 23.3008 17.4449L23.4219 17.2701L23.3809 17.063C23.2117 16.2111 22.7956 15.4274 22.1855 14.8091L22.1836 14.8062C21.5536 14.1756 20.7503 13.7463 19.876 13.5728ZM18.5 27.4878L18.083 27.4166C16.8025 27.2 15.6396 26.5379 14.8008 25.5464C13.962 24.5549 13.5013 23.2983 13.5 21.9996V18.0074C13.5181 16.7505 13.9661 15.5375 14.7695 14.5709C15.573 13.6042 16.6836 12.9415 17.916 12.6939C19.1484 12.4463 20.4285 12.6291 21.543 13.2105C22.6575 13.7919 23.5399 14.7377 24.042 15.8902L24.2686 16.4107L24.7568 16.1187C25.3498 15.7638 26.0174 15.5554 26.7041 15.5093L27 15.4996C28.1934 15.4996 29.3377 15.9741 30.1816 16.8179C31.0255 17.6617 31.4999 18.8062 31.5 19.9996V24.0005C31.5001 25.0376 31.142 26.0428 30.4863 26.8462C29.8304 27.6497 28.9166 28.2022 27.9004 28.4097L27.5 28.4918V30.9996C27.5 31.1321 27.4471 31.2593 27.3535 31.3531C27.2597 31.4468 27.1326 31.4996 27 31.4996C26.8674 31.4996 26.7403 31.4468 26.6465 31.3531C26.5529 31.2593 26.5 31.1321 26.5 30.9996V28.4937L26.1025 28.4107C25.5079 28.2863 24.9443 28.0428 24.4463 27.6949C23.9482 27.3468 23.5254 26.901 23.2041 26.3853L22.9053 25.9058L22.4658 26.2613C21.7276 26.8573 20.8489 27.2553 19.9141 27.4175L19.5 27.4888V30.9996C19.5 31.1321 19.4471 31.2593 19.3535 31.3531C19.2597 31.4468 19.1326 31.4996 19 31.4996C18.8674 31.4996 18.7403 31.4468 18.6465 31.3531C18.5529 31.2593 18.5 31.1321 18.5 30.9996V27.4878Z" fill="black" stroke="#F5F6FA"/>
</svg>
