<svg width="45" height="45" viewBox="0 0 45 45" fill="none" xmlns="http://www.w3.org/2000/svg">
<rect x="0.5" y="0.333344" width="44" height="44" rx="12" fill="#4FCCC4"/>
<path d="M15.5 12.8333H29.5C29.6326 12.8333 29.7597 12.8861 29.8535 12.9798C29.9473 13.0736 30 13.2007 30 13.3333V30.8333H31.5C31.6326 30.8333 31.7597 30.8861 31.8535 30.9798C31.9473 31.0736 32 31.2007 32 31.3333C32 31.466 31.9473 31.5931 31.8535 31.6869C31.7597 31.7806 31.6326 31.8333 31.5 31.8333H13.5C13.3674 31.8333 13.2403 31.7806 13.1465 31.6869C13.0527 31.5931 13 31.466 13 31.3333C13 31.2007 13.0527 31.0736 13.1465 30.9798C13.2403 30.8861 13.3674 30.8333 13.5 30.8333H15V13.3333C15 13.2007 15.0527 13.0736 15.1465 12.9798C15.2403 12.8861 15.3674 12.8333 15.5 12.8333ZM16 30.8333H20V25.3333C20 25.2007 20.0527 25.0736 20.1465 24.9798C20.2403 24.8861 20.3674 24.8333 20.5 24.8333H24.5C24.6326 24.8333 24.7597 24.8861 24.8535 24.9798C24.9473 25.0736 25 25.2007 25 25.3333V30.8333H29V13.8333H16V30.8333ZM21 30.8333H24V25.8333H21V30.8333ZM19.5 20.8333H20.5C20.6326 20.8333 20.7597 20.8861 20.8535 20.9798C20.9473 21.0736 21 21.2007 21 21.3333C21 21.466 20.9473 21.5931 20.8535 21.6869C20.7597 21.7806 20.6326 21.8333 20.5 21.8333H19.5C19.3674 21.8333 19.2403 21.7806 19.1465 21.6869C19.0527 21.5931 19 21.466 19 21.3333C19 21.2007 19.0527 21.0736 19.1465 20.9798C19.2403 20.8861 19.3674 20.8333 19.5 20.8333ZM24.5 20.8333H25.5C25.6326 20.8333 25.7597 20.8861 25.8535 20.9798C25.9473 21.0736 26 21.2007 26 21.3333C26 21.466 25.9473 21.5931 25.8535 21.6869C25.7597 21.7806 25.6326 21.8333 25.5 21.8333H24.5C24.3674 21.8333 24.2403 21.7806 24.1465 21.6869C24.0527 21.5931 24 21.466 24 21.3333C24 21.2007 24.0527 21.0736 24.1465 20.9798C24.2403 20.8861 24.3674 20.8333 24.5 20.8333ZM19.5 16.8333H20.5C20.6326 16.8333 20.7597 16.8861 20.8535 16.9798C20.9473 17.0736 21 17.2007 21 17.3333C21 17.466 20.9473 17.5931 20.8535 17.6869C20.7597 17.7806 20.6326 17.8333 20.5 17.8333H19.5C19.3674 17.8333 19.2403 17.7806 19.1465 17.6869C19.0527 17.5931 19 17.466 19 17.3333C19 17.2007 19.0527 17.0736 19.1465 16.9798C19.2403 16.8861 19.3674 16.8333 19.5 16.8333ZM24.5 16.8333H25.5C25.6326 16.8333 25.7597 16.8861 25.8535 16.9798C25.9473 17.0736 26 17.2007 26 17.3333C26 17.466 25.9473 17.5931 25.8535 17.6869C25.7597 17.7806 25.6326 17.8333 25.5 17.8333H24.5C24.3674 17.8333 24.2403 17.7806 24.1465 17.6869C24.0527 17.5931 24 17.466 24 17.3333C24 17.2007 24.0527 17.0736 24.1465 16.9798C24.2403 16.8861 24.3674 16.8333 24.5 16.8333Z" fill="#F5F6FA" stroke="#F5F6FA"/>
</svg>
