<svg width="44" height="45" viewBox="0 0 44 45" fill="none" xmlns="http://www.w3.org/2000/svg">
<rect y="0.888885" width="44" height="44" rx="12" fill="#A69EF3"/>
<path d="M21.9996 13.3902C22.1209 13.3902 22.2385 13.4342 22.3297 13.5142L31.3278 21.5122L31.3287 21.5132C31.4052 21.5809 31.4589 21.6708 31.483 21.77C31.5011 21.8444 31.5023 21.9215 31.486 21.9956L31.4635 22.0689C31.4273 22.1626 31.3636 22.2432 31.2809 22.3003C31.198 22.3574 31.0993 22.3889 30.9987 22.3892H29.4996V31.8892C29.4996 32.0217 29.4469 32.149 29.3532 32.2427C29.2594 32.3363 29.1321 32.3892 28.9996 32.3892H14.9996C14.8672 32.3891 14.7398 32.3364 14.6461 32.2427C14.5524 32.149 14.4997 32.0217 14.4996 31.8892V22.3892H13.0016C12.9009 22.3889 12.8023 22.3574 12.7194 22.3003C12.6574 22.2576 12.606 22.202 12.569 22.1372L12.5367 22.0689L12.5143 21.9956C12.4979 21.9215 12.4992 21.8444 12.5172 21.77C12.5413 21.6708 12.595 21.5809 12.6715 21.5132L12.6725 21.5122L21.6725 13.5122L21.6715 13.5112C21.7623 13.4325 21.8794 13.3902 21.9996 13.3902ZM15.4996 31.3892H19.4996V27.8892C19.4996 27.2263 19.7634 26.5904 20.2321 26.1216C20.7008 25.6528 21.3367 25.3893 21.9996 25.3892C22.6627 25.3892 23.2994 25.6528 23.7682 26.1216C24.2367 26.5904 24.4996 27.2263 24.4996 27.8892V31.3892H28.4996V22.3892H15.4996V31.3892ZM21.9996 26.3892C21.6019 26.3893 21.2203 26.5474 20.9391 26.8286C20.658 27.1099 20.4996 27.4915 20.4996 27.8892V31.3892H23.4996V27.8892C23.4996 27.4914 23.3415 27.1099 23.0602 26.8286C22.7789 26.5473 22.3974 26.3892 21.9996 26.3892ZM21.6676 14.855L15.2975 20.5152L14.3141 21.3892H29.6852L28.7018 20.5152L22.3317 14.855L21.9996 14.5601L21.6676 14.855Z" fill="#F5F6FA" stroke="#F5F6FA"/>
</svg>
