<svg width="45" height="45" viewBox="0 0 45 45" fill="none" xmlns="http://www.w3.org/2000/svg">
<rect x="0.75" y="0.555573" width="44" height="44" rx="12" fill="#82C9A7"/>
<path d="M27.25 17.0551C26.3218 17.0551 25.4317 17.4243 24.7754 18.0805C24.1191 18.7368 23.7501 19.627 23.75 20.5551V24.5571C23.7521 25.2792 23.9778 25.9828 24.3955 26.5717C24.8132 27.1606 25.4023 27.6064 26.083 27.8471L26.75 28.0825V23.5551C26.7501 23.4227 26.8028 23.2953 26.8965 23.2016C26.9902 23.108 27.1175 23.0551 27.25 23.0551C27.3825 23.0551 27.5098 23.108 27.6035 23.2016C27.6972 23.2953 27.7499 23.4227 27.75 23.5551V28.0825L28.417 27.8471C29.0977 27.6064 29.6868 27.1606 30.1045 26.5717C30.47 26.0563 30.6891 25.4532 30.7393 24.8266L30.75 24.5571V20.5551C30.7499 19.627 30.3809 18.7368 29.7246 18.0805C29.0683 17.4243 28.1782 17.0551 27.25 17.0551ZM20.126 14.1284C19.2517 13.9549 18.3455 14.045 17.5225 14.3872C16.6993 14.7295 15.9965 15.3089 15.5029 16.0512C15.0098 16.7931 14.7475 17.6644 14.75 18.5551V22.5571C14.7532 23.5522 15.0866 24.5184 15.6973 25.3042C16.3079 26.0898 17.1616 26.6511 18.125 26.8999L18.75 27.061V23.5551C18.7501 23.4227 18.8028 23.2953 18.8965 23.2016C18.9902 23.108 19.1175 23.0551 19.25 23.0551C19.3825 23.0551 19.5098 23.108 19.6035 23.2016C19.6972 23.2953 19.7499 23.4227 19.75 23.5551V27.0717L20.375 26.9096C21.2808 26.6749 22.0917 26.1633 22.6934 25.4467L22.8398 25.2719L22.8037 25.0464C22.7768 24.8796 22.7589 24.7112 22.75 24.5424V20.5561C22.7514 19.6427 23.0306 18.7513 23.5508 18.0005L23.6719 17.8257L23.6309 17.6186C23.4617 16.7667 23.0456 15.983 22.4355 15.3647L22.4336 15.3618C21.8036 14.7312 21.0003 14.3019 20.126 14.1284ZM18.75 28.0434L18.333 27.9721C17.0525 27.7556 15.8896 27.0935 15.0508 26.102C14.212 25.1105 13.7513 23.8539 13.75 22.5551V18.563C13.7681 17.3061 14.2161 16.0931 15.0195 15.1264C15.823 14.1598 16.9336 13.4971 18.166 13.2495C19.3984 13.0019 20.6785 13.1847 21.793 13.7661C22.9075 14.3475 23.7899 15.2933 24.292 16.4458L24.5186 16.9663L25.0068 16.6743C25.5998 16.3194 26.2674 16.111 26.9541 16.0649L27.25 16.0551C28.4434 16.0551 29.5877 16.5297 30.4316 17.3735C31.2755 18.2173 31.7499 19.3618 31.75 20.5551V24.5561C31.7501 25.5932 31.392 26.5984 30.7363 27.4018C30.0804 28.2053 29.1666 28.7578 28.1504 28.9653L27.75 29.0473V31.5551C27.75 31.6877 27.6971 31.8149 27.6035 31.9087C27.5097 32.0024 27.3826 32.0551 27.25 32.0551C27.1174 32.0551 26.9903 32.0024 26.8965 31.9087C26.8029 31.8149 26.75 31.6877 26.75 31.5551V29.0493L26.3525 28.9663C25.7579 28.8419 25.1943 28.5984 24.6963 28.2505C24.1982 27.9024 23.7754 27.4566 23.4541 26.9409L23.1553 26.4614L22.7158 26.8169C21.9776 27.4129 21.0989 27.8109 20.1641 27.9731L19.75 28.0444V31.5551C19.75 31.6877 19.6971 31.8149 19.6035 31.9087C19.5097 32.0024 19.3826 32.0551 19.25 32.0551C19.1174 32.0551 18.9903 32.0024 18.8965 31.9087C18.8029 31.8149 18.75 31.6877 18.75 31.5551V28.0434Z" fill="#F5F6FA" stroke="#F5F6FA"/>
</svg>
