<svg width="45" height="45" viewBox="0 0 45 45" fill="none" xmlns="http://www.w3.org/2000/svg">
<rect x="0.25" y="0.111115" width="44" height="44" rx="12" fill="#9ADBD7"/>
<path d="M15.25 12.6111H29.25C29.3826 12.6111 29.5097 12.6638 29.6035 12.7576C29.6973 12.8514 29.75 12.9785 29.75 13.1111V30.6111H31.25C31.3826 30.6111 31.5097 30.6638 31.6035 30.7576C31.6973 30.8514 31.75 30.9785 31.75 31.1111C31.75 31.2437 31.6973 31.3709 31.6035 31.4646C31.5097 31.5584 31.3826 31.6111 31.25 31.6111H13.25C13.1174 31.6111 12.9903 31.5584 12.8965 31.4646C12.8027 31.3709 12.75 31.2437 12.75 31.1111C12.75 30.9785 12.8027 30.8514 12.8965 30.7576C12.9903 30.6638 13.1174 30.6111 13.25 30.6111H14.75V13.1111C14.75 12.9785 14.8027 12.8514 14.8965 12.7576C14.9903 12.6638 15.1174 12.6111 15.25 12.6111ZM15.75 30.6111H19.75V25.1111C19.75 24.9785 19.8027 24.8514 19.8965 24.7576C19.9903 24.6638 20.1174 24.6111 20.25 24.6111H24.25C24.3826 24.6111 24.5097 24.6638 24.6035 24.7576C24.6973 24.8514 24.75 24.9785 24.75 25.1111V30.6111H28.75V13.6111H15.75V30.6111ZM20.75 30.6111H23.75V25.6111H20.75V30.6111ZM19.25 20.6111H20.25C20.3826 20.6111 20.5097 20.6638 20.6035 20.7576C20.6973 20.8514 20.75 20.9785 20.75 21.1111C20.75 21.2437 20.6973 21.3709 20.6035 21.4646C20.5097 21.5584 20.3826 21.6111 20.25 21.6111H19.25C19.1174 21.6111 18.9903 21.5584 18.8965 21.4646C18.8027 21.3709 18.75 21.2437 18.75 21.1111C18.75 20.9785 18.8027 20.8514 18.8965 20.7576C18.9903 20.6638 19.1174 20.6111 19.25 20.6111ZM24.25 20.6111H25.25C25.3826 20.6111 25.5097 20.6638 25.6035 20.7576C25.6973 20.8514 25.75 20.9785 25.75 21.1111C25.75 21.2437 25.6973 21.3709 25.6035 21.4646C25.5097 21.5584 25.3826 21.6111 25.25 21.6111H24.25C24.1174 21.6111 23.9903 21.5584 23.8965 21.4646C23.8027 21.3709 23.75 21.2437 23.75 21.1111C23.75 20.9785 23.8027 20.8514 23.8965 20.7576C23.9903 20.6638 24.1174 20.6111 24.25 20.6111ZM19.25 16.6111H20.25C20.3826 16.6111 20.5097 16.6638 20.6035 16.7576C20.6973 16.8514 20.75 16.9785 20.75 17.1111C20.75 17.2437 20.6973 17.3709 20.6035 17.4646C20.5097 17.5584 20.3826 17.6111 20.25 17.6111H19.25C19.1174 17.6111 18.9903 17.5584 18.8965 17.4646C18.8027 17.3709 18.75 17.2437 18.75 17.1111C18.75 16.9785 18.8027 16.8514 18.8965 16.7576C18.9903 16.6638 19.1174 16.6111 19.25 16.6111ZM24.25 16.6111H25.25C25.3826 16.6111 25.5097 16.6638 25.6035 16.7576C25.6973 16.8514 25.75 16.9785 25.75 17.1111C25.75 17.2437 25.6973 17.3709 25.6035 17.4646C25.5097 17.5584 25.3826 17.6111 25.25 17.6111H24.25C24.1174 17.6111 23.9903 17.5584 23.8965 17.4646C23.8027 17.3709 23.75 17.2437 23.75 17.1111C23.75 16.9785 23.8027 16.8514 23.8965 16.7576C23.9903 16.6638 24.1174 16.6111 24.25 16.6111Z" fill="#F5F6FA" stroke="#F5F6FA"/>
</svg>
