<svg width="45" height="45" viewBox="0 0 45 45" fill="none" xmlns="http://www.w3.org/2000/svg">
<rect x="0.25" y="0.777802" width="44" height="44" rx="12" fill="#B3DE96"/>
<path d="M22.2496 13.2791C22.3709 13.2791 22.4885 13.3231 22.5797 13.4031L31.5778 21.4011L31.5787 21.4021C31.6552 21.4698 31.7089 21.5597 31.733 21.6589C31.7511 21.7333 31.7523 21.8104 31.736 21.8845L31.7135 21.9578C31.6773 22.0515 31.6136 22.1321 31.5309 22.1892C31.4479 22.2463 31.3493 22.2778 31.2487 22.2781H29.7496V31.7781C29.7496 31.9106 29.6968 32.0379 29.6031 32.1316C29.5094 32.2252 29.3821 32.2781 29.2496 32.2781H15.2496C15.1172 32.278 14.9898 32.2253 14.8961 32.1316C14.8024 32.0379 14.7497 31.9106 14.7496 31.7781V22.2781H13.2516C13.1509 22.2778 13.0523 22.2463 12.9694 22.1892C12.9074 22.1465 12.856 22.0909 12.819 22.0261L12.7867 21.9578L12.7643 21.8845C12.7479 21.8104 12.7491 21.7333 12.7672 21.6589C12.7913 21.5597 12.845 21.4698 12.9215 21.4021L12.9225 21.4011L21.9225 13.4011L21.9215 13.4001C22.0123 13.3214 22.1294 13.2791 22.2496 13.2791ZM15.7496 31.2781H19.7496V27.7781C19.7496 27.1152 20.0134 26.4793 20.4821 26.0105C20.9508 25.5417 21.5867 25.2782 22.2496 25.2781C22.9127 25.2781 23.5493 25.5417 24.0182 26.0105C24.4867 26.4793 24.7496 27.1152 24.7496 27.7781V31.2781H28.7496V22.2781H15.7496V31.2781ZM22.2496 26.2781C21.8519 26.2782 21.4703 26.4363 21.1891 26.7175C20.908 26.9988 20.7496 27.3804 20.7496 27.7781V31.2781H23.7496V27.7781C23.7496 27.3803 23.5915 26.9988 23.3102 26.7175C23.0289 26.4362 22.6474 26.2781 22.2496 26.2781ZM21.9176 14.7439L15.5475 20.4041L14.5641 21.2781H29.9352L28.9518 20.4041L22.5817 14.7439L22.2496 14.449L21.9176 14.7439Z" fill="#F5F6FA" stroke="#F5F6FA"/>
</svg>
