<svg width="45" height="44" viewBox="0 0 45 44" fill="none" xmlns="http://www.w3.org/2000/svg">
<rect x="0.75" width="44" height="44" rx="12" fill="#A6B4CD"/>
<path d="M15.75 12.5H29.75C29.8826 12.5 30.0097 12.5527 30.1035 12.6465C30.1973 12.7403 30.25 12.8674 30.25 13V30.5H31.75C31.8826 30.5 32.0097 30.5527 32.1035 30.6465C32.1973 30.7403 32.25 30.8674 32.25 31C32.25 31.1326 32.1973 31.2597 32.1035 31.3535C32.0097 31.4473 31.8826 31.5 31.75 31.5H13.75C13.6174 31.5 13.4903 31.4473 13.3965 31.3535C13.3027 31.2597 13.25 31.1326 13.25 31C13.25 30.8674 13.3027 30.7403 13.3965 30.6465C13.4903 30.5527 13.6174 30.5 13.75 30.5H15.25V13C15.25 12.8674 15.3027 12.7403 15.3965 12.6465C15.4903 12.5527 15.6174 12.5 15.75 12.5ZM16.25 30.5H20.25V25C20.25 24.8674 20.3027 24.7403 20.3965 24.6465C20.4903 24.5527 20.6174 24.5 20.75 24.5H24.75C24.8826 24.5 25.0097 24.5527 25.1035 24.6465C25.1973 24.7403 25.25 24.8674 25.25 25V30.5H29.25V13.5H16.25V30.5ZM21.25 30.5H24.25V25.5H21.25V30.5ZM19.75 20.5H20.75C20.8826 20.5 21.0097 20.5527 21.1035 20.6465C21.1973 20.7403 21.25 20.8674 21.25 21C21.25 21.1326 21.1973 21.2597 21.1035 21.3535C21.0097 21.4473 20.8826 21.5 20.75 21.5H19.75C19.6174 21.5 19.4903 21.4473 19.3965 21.3535C19.3027 21.2597 19.25 21.1326 19.25 21C19.25 20.8674 19.3027 20.7403 19.3965 20.6465C19.4903 20.5527 19.6174 20.5 19.75 20.5ZM24.75 20.5H25.75C25.8826 20.5 26.0097 20.5527 26.1035 20.6465C26.1973 20.7403 26.25 20.8674 26.25 21C26.25 21.1326 26.1973 21.2597 26.1035 21.3535C26.0097 21.4473 25.8826 21.5 25.75 21.5H24.75C24.6174 21.5 24.4903 21.4473 24.3965 21.3535C24.3027 21.2597 24.25 21.1326 24.25 21C24.25 20.8674 24.3027 20.7403 24.3965 20.6465C24.4903 20.5527 24.6174 20.5 24.75 20.5ZM19.75 16.5H20.75C20.8826 16.5 21.0097 16.5527 21.1035 16.6465C21.1973 16.7403 21.25 16.8674 21.25 17C21.25 17.1326 21.1973 17.2597 21.1035 17.3535C21.0097 17.4473 20.8826 17.5 20.75 17.5H19.75C19.6174 17.5 19.4903 17.4473 19.3965 17.3535C19.3027 17.2597 19.25 17.1326 19.25 17C19.25 16.8674 19.3027 16.7403 19.3965 16.6465C19.4903 16.5527 19.6174 16.5 19.75 16.5ZM24.75 16.5H25.75C25.8826 16.5 26.0097 16.5527 26.1035 16.6465C26.1973 16.7403 26.25 16.8674 26.25 17C26.25 17.1326 26.1973 17.2597 26.1035 17.3535C26.0097 17.4473 25.8826 17.5 25.75 17.5H24.75C24.6174 17.5 24.4903 17.4473 24.3965 17.3535C24.3027 17.2597 24.25 17.1326 24.25 17C24.25 16.8674 24.3027 16.7403 24.3965 16.6465C24.4903 16.5527 24.6174 16.5 24.75 16.5Z" fill="black" stroke="#F5F6FA"/>
</svg>
