<svg width="45" height="45" viewBox="0 0 45 45" fill="none" xmlns="http://www.w3.org/2000/svg">
<rect x="0.5" y="0.666656" width="44" height="44" rx="12" fill="#FAAAEF"/>
<path d="M27 17.1662C26.0718 17.1662 25.1817 17.5354 24.5254 18.1916C23.8691 18.8479 23.5001 19.7381 23.5 20.6662V24.6682C23.5021 25.3902 23.7278 26.0938 24.1455 26.6828C24.5632 27.2717 25.1523 27.7175 25.833 27.9582L26.5 28.1936V23.6662C26.5001 23.5338 26.5528 23.4064 26.6465 23.3127C26.7402 23.2191 26.8675 23.1662 27 23.1662C27.1325 23.1662 27.2598 23.2191 27.3535 23.3127C27.4472 23.4064 27.4999 23.5338 27.5 23.6662V28.1936L28.167 27.9582C28.8477 27.7175 29.4368 27.2717 29.8545 26.6828C30.22 26.1674 30.4391 25.5643 30.4893 24.9377L30.5 24.6682V20.6662C30.4999 19.7381 30.1309 18.8479 29.4746 18.1916C28.8183 17.5354 27.9282 17.1662 27 17.1662ZM19.876 14.2395C19.0017 14.0659 18.0955 14.1561 17.2725 14.4982C16.4493 14.8405 15.7465 15.4199 15.2529 16.1623C14.7598 16.9041 14.4975 17.7754 14.5 18.6662V22.6682C14.5032 23.6633 14.8366 24.6295 15.4473 25.4152C16.0579 26.2008 16.9116 26.7622 17.875 27.0109L18.5 27.1721V23.6662C18.5001 23.5338 18.5528 23.4064 18.6465 23.3127C18.7402 23.2191 18.8675 23.1662 19 23.1662C19.1325 23.1662 19.2598 23.2191 19.3535 23.3127C19.4472 23.4064 19.4999 23.5338 19.5 23.6662V27.1828L20.125 27.0207C21.0308 26.786 21.8417 26.2744 22.4434 25.5578L22.5898 25.383L22.5537 25.1574C22.5268 24.9906 22.5089 24.8222 22.5 24.6535V20.6672C22.5014 19.7538 22.7806 18.8624 23.3008 18.1115L23.4219 17.9367L23.3809 17.7297C23.2117 16.8778 22.7956 16.094 22.1855 15.4758L22.1836 15.4729C21.5536 14.8423 20.7503 14.413 19.876 14.2395ZM18.5 28.1545L18.083 28.0832C16.8025 27.8667 15.6396 27.2045 14.8008 26.2131C13.962 25.2216 13.5013 23.965 13.5 22.6662V18.674C13.5181 17.4172 13.9661 16.2042 14.7695 15.2375C15.573 14.2708 16.6836 13.6081 17.916 13.3605C19.1484 13.113 20.4285 13.2958 21.543 13.8772C22.6575 14.4586 23.5399 15.4044 24.042 16.5568L24.2686 17.0773L24.7568 16.7854C25.3498 16.4305 26.0174 16.2221 26.7041 16.176L27 16.1662C28.1934 16.1662 29.3377 16.6408 30.1816 17.4846C31.0255 18.3284 31.4999 19.4729 31.5 20.6662V24.6672C31.5001 25.7042 31.142 26.7095 30.4863 27.5129C29.8304 28.3164 28.9166 28.8688 27.9004 29.0764L27.5 29.1584V31.6662C27.5 31.7987 27.4471 31.926 27.3535 32.0197C27.2597 32.1135 27.1326 32.1662 27 32.1662C26.8674 32.1662 26.7403 32.1135 26.6465 32.0197C26.5529 31.926 26.5 31.7987 26.5 31.6662V29.1604L26.1025 29.0773C25.5079 28.953 24.9443 28.7095 24.4463 28.3615C23.9482 28.0135 23.5254 27.5677 23.2041 27.052L22.9053 26.5725L22.4658 26.9279C21.7276 27.524 20.8489 27.9219 19.9141 28.0842L19.5 28.1555V31.6662C19.5 31.7987 19.4471 31.926 19.3535 32.0197C19.2597 32.1135 19.1326 32.1662 19 32.1662C18.8674 32.1662 18.7403 32.1135 18.6465 32.0197C18.5529 31.926 18.5 31.7987 18.5 31.6662V28.1545Z" fill="#F5F6FA" stroke="#F5F6FA"/>
</svg>
