<svg width="44" height="45" viewBox="0 0 44 45" fill="none" xmlns="http://www.w3.org/2000/svg">
<rect y="0.222221" width="44" height="44" rx="12" fill="#7287B1"/>
<path d="M21.9996 12.7235C22.1209 12.7235 22.2385 12.7675 22.3297 12.8475L31.3278 20.8456L31.3287 20.8465C31.4052 20.9142 31.4589 21.0042 31.483 21.1034C31.5011 21.1777 31.5023 21.2549 31.486 21.329L31.4635 21.4022C31.4273 21.496 31.3636 21.5766 31.2809 21.6336C31.198 21.6907 31.0993 21.7222 30.9987 21.7225H29.4996V31.2225C29.4996 31.355 29.4469 31.4823 29.3532 31.576C29.2594 31.6696 29.1321 31.7225 28.9996 31.7225H14.9996C14.8672 31.7224 14.7398 31.6697 14.6461 31.576C14.5524 31.4823 14.4997 31.355 14.4996 31.2225V21.7225H13.0016C12.9009 21.7222 12.8023 21.6907 12.7194 21.6336C12.6574 21.591 12.606 21.5353 12.569 21.4706L12.5367 21.4022L12.5143 21.329C12.4979 21.2548 12.4992 21.1778 12.5172 21.1034C12.5413 21.0042 12.595 20.9142 12.6715 20.8465L12.6725 20.8456L21.6725 12.8456L21.6715 12.8446C21.7623 12.7659 21.8794 12.7236 21.9996 12.7235ZM15.4996 30.7225H19.4996V27.2225C19.4996 26.5596 19.7634 25.9237 20.2321 25.4549C20.7008 24.9862 21.3367 24.7226 21.9996 24.7225C22.6627 24.7225 23.2994 24.9861 23.7682 25.4549C24.2367 25.9237 24.4996 26.5597 24.4996 27.2225V30.7225H28.4996V21.7225H15.4996V30.7225ZM21.9996 25.7225C21.6019 25.7226 21.2203 25.8807 20.9391 26.162C20.658 26.4432 20.4996 26.8248 20.4996 27.2225V30.7225H23.4996V27.2225C23.4996 26.8247 23.3415 26.4433 23.0602 26.162C22.7789 25.8807 22.3974 25.7225 21.9996 25.7225ZM21.6676 14.1883L15.2975 19.8485L14.3141 20.7225H29.6852L28.7018 19.8485L22.3317 14.1883L21.9996 13.8934L21.6676 14.1883Z" fill="black" stroke="#E2E5EF"/>
</svg>
