<svg width="45" height="45" viewBox="0 0 45 45" fill="none" xmlns="http://www.w3.org/2000/svg">
<rect x="0.25" y="0.555573" width="44" height="44" rx="12" fill="#82C9A7"/>
<path d="M22.2496 13.0568C22.3709 13.0568 22.4885 13.1009 22.5797 13.1808L31.5778 21.1789L31.5787 21.1799C31.6552 21.2475 31.7089 21.3375 31.733 21.4367C31.7511 21.5111 31.7523 21.5882 31.736 21.6623L31.7135 21.7355C31.6773 21.8293 31.6136 21.9099 31.5309 21.967C31.4479 22.0241 31.3493 22.0555 31.2487 22.0558H29.7496V31.5558C29.7496 31.6884 29.6968 31.8157 29.6031 31.9094C29.5094 32.0029 29.3821 32.0558 29.2496 32.0558H15.2496C15.1172 32.0558 14.9898 32.003 14.8961 31.9094C14.8024 31.8157 14.7497 31.6883 14.7496 31.5558V22.0558H13.2516C13.1509 22.0555 13.0523 22.0241 12.9694 21.967C12.9074 21.9243 12.856 21.8686 12.819 21.8039L12.7867 21.7355L12.7643 21.6623C12.7479 21.5882 12.7491 21.5111 12.7672 21.4367C12.7913 21.3375 12.845 21.2475 12.9215 21.1799L12.9225 21.1789L21.9225 13.1789L21.9215 13.1779C22.0123 13.0992 22.1294 13.0569 22.2496 13.0568ZM15.7496 31.0558H19.7496V27.5558C19.7496 26.893 20.0134 26.2571 20.4821 25.7883C20.9508 25.3195 21.5867 25.0559 22.2496 25.0558C22.9127 25.0558 23.5493 25.3194 24.0182 25.7883C24.4867 26.2571 24.7496 26.893 24.7496 27.5558V31.0558H28.7496V22.0558H15.7496V31.0558ZM22.2496 26.0558C21.8519 26.0559 21.4703 26.2141 21.1891 26.4953C20.908 26.7766 20.7496 27.1582 20.7496 27.5558V31.0558H23.7496V27.5558C23.7496 27.158 23.5915 26.7766 23.3102 26.4953C23.0289 26.214 22.6474 26.0558 22.2496 26.0558ZM21.9176 14.5217L15.5475 20.1818L14.5641 21.0558H29.9352L28.9518 20.1818L22.5817 14.5217L22.2496 14.2267L21.9176 14.5217Z" fill="#F5F6FA" stroke="#F5F6FA"/>
</svg>
