<svg width="45" height="45" viewBox="0 0 45 45" fill="none" xmlns="http://www.w3.org/2000/svg">
<rect x="0.25" y="0.333344" width="44" height="44" rx="12" fill="#4FCCC4"/>
<path d="M22.2496 12.8346C22.3709 12.8346 22.4885 12.8786 22.5797 12.9586L31.5778 20.9567L31.5787 20.9576C31.6552 21.0253 31.7089 21.1153 31.733 21.2145C31.7511 21.2888 31.7523 21.366 31.736 21.4401L31.7135 21.5133C31.6773 21.6071 31.6136 21.6877 31.5309 21.7448C31.4479 21.8018 31.3493 21.8333 31.2487 21.8336H29.7496V31.3336C29.7496 31.4661 29.6968 31.5934 29.6031 31.6871C29.5094 31.7807 29.3821 31.8336 29.2496 31.8336H15.2496C15.1172 31.8335 14.9898 31.7808 14.8961 31.6871C14.8024 31.5934 14.7497 31.4661 14.7496 31.3336V21.8336H13.2516C13.1509 21.8333 13.0523 21.8018 12.9694 21.7448C12.9074 21.7021 12.856 21.6464 12.819 21.5817L12.7867 21.5133L12.7643 21.4401C12.7479 21.366 12.7491 21.2889 12.7672 21.2145C12.7913 21.1153 12.845 21.0253 12.9215 20.9576L12.9225 20.9567L21.9225 12.9567L21.9215 12.9557C22.0123 12.877 22.1294 12.8347 22.2496 12.8346ZM15.7496 30.8336H19.7496V27.3336C19.7496 26.6707 20.0134 26.0348 20.4821 25.566C20.9508 25.0973 21.5867 24.8337 22.2496 24.8336C22.9127 24.8336 23.5493 25.0972 24.0182 25.566C24.4867 26.0348 24.7496 26.6708 24.7496 27.3336V30.8336H28.7496V21.8336H15.7496V30.8336ZM22.2496 25.8336C21.8519 25.8337 21.4703 25.9919 21.1891 26.2731C20.908 26.5543 20.7496 26.9359 20.7496 27.3336V30.8336H23.7496V27.3336C23.7496 26.9358 23.5915 26.5544 23.3102 26.2731C23.0289 25.9918 22.6474 25.8336 22.2496 25.8336ZM21.9176 14.2994L15.5475 19.9596L14.5641 20.8336H29.9352L28.9518 19.9596L22.5817 14.2994L22.2496 14.0045L21.9176 14.2994Z" fill="#F5F6FA" stroke="#F5F6FA"/>
</svg>
