<svg width="45" height="45" viewBox="0 0 45 45" fill="none" xmlns="http://www.w3.org/2000/svg">
<rect x="0.75" y="0.444443" width="44" height="44" rx="12" fill="#F26FB1"/>
<path d="M15.75 12.9444H29.75C29.8826 12.9444 30.0097 12.9972 30.1035 13.0909C30.1973 13.1847 30.25 13.3118 30.25 13.4444V30.9444H31.75C31.8826 30.9444 32.0097 30.9972 32.1035 31.0909C32.1973 31.1847 32.25 31.3118 32.25 31.4444C32.25 31.5771 32.1973 31.7042 32.1035 31.798C32.0097 31.8917 31.8826 31.9444 31.75 31.9444H13.75C13.6174 31.9444 13.4903 31.8917 13.3965 31.798C13.3027 31.7042 13.25 31.5771 13.25 31.4444C13.25 31.3118 13.3027 31.1847 13.3965 31.0909C13.4903 30.9972 13.6174 30.9444 13.75 30.9444H15.25V13.4444C15.25 13.3118 15.3027 13.1847 15.3965 13.0909C15.4903 12.9972 15.6174 12.9444 15.75 12.9444ZM16.25 30.9444H20.25V25.4444C20.25 25.3118 20.3027 25.1847 20.3965 25.0909C20.4903 24.9972 20.6174 24.9444 20.75 24.9444H24.75C24.8826 24.9444 25.0097 24.9972 25.1035 25.0909C25.1973 25.1847 25.25 25.3118 25.25 25.4444V30.9444H29.25V13.9444H16.25V30.9444ZM21.25 30.9444H24.25V25.9444H21.25V30.9444ZM19.75 20.9444H20.75C20.8826 20.9444 21.0097 20.9972 21.1035 21.0909C21.1973 21.1847 21.25 21.3118 21.25 21.4444C21.25 21.5771 21.1973 21.7042 21.1035 21.798C21.0097 21.8917 20.8826 21.9444 20.75 21.9444H19.75C19.6174 21.9444 19.4903 21.8917 19.3965 21.798C19.3027 21.7042 19.25 21.5771 19.25 21.4444C19.25 21.3118 19.3027 21.1847 19.3965 21.0909C19.4903 20.9972 19.6174 20.9444 19.75 20.9444ZM24.75 20.9444H25.75C25.8826 20.9444 26.0097 20.9972 26.1035 21.0909C26.1973 21.1847 26.25 21.3118 26.25 21.4444C26.25 21.5771 26.1973 21.7042 26.1035 21.798C26.0097 21.8917 25.8826 21.9444 25.75 21.9444H24.75C24.6174 21.9444 24.4903 21.8917 24.3965 21.798C24.3027 21.7042 24.25 21.5771 24.25 21.4444C24.25 21.3118 24.3027 21.1847 24.3965 21.0909C24.4903 20.9972 24.6174 20.9444 24.75 20.9444ZM19.75 16.9444H20.75C20.8826 16.9444 21.0097 16.9972 21.1035 17.0909C21.1973 17.1847 21.25 17.3118 21.25 17.4444C21.25 17.5771 21.1973 17.7042 21.1035 17.798C21.0097 17.8917 20.8826 17.9444 20.75 17.9444H19.75C19.6174 17.9444 19.4903 17.8917 19.3965 17.798C19.3027 17.7042 19.25 17.5771 19.25 17.4444C19.25 17.3118 19.3027 17.1847 19.3965 17.0909C19.4903 16.9972 19.6174 16.9444 19.75 16.9444ZM24.75 16.9444H25.75C25.8826 16.9444 26.0097 16.9972 26.1035 17.0909C26.1973 17.1847 26.25 17.3118 26.25 17.4444C26.25 17.5771 26.1973 17.7042 26.1035 17.798C26.0097 17.8917 25.8826 17.9444 25.75 17.9444H24.75C24.6174 17.9444 24.4903 17.8917 24.3965 17.798C24.3027 17.7042 24.25 17.5771 24.25 17.4444C24.25 17.3118 24.3027 17.1847 24.3965 17.0909C24.4903 16.9972 24.6174 16.9444 24.75 16.9444Z" fill="#D5DAE8" stroke="#E2E5EF"/>
</svg>
