<svg width="44" height="45" viewBox="0 0 44 45" fill="none" xmlns="http://www.w3.org/2000/svg">
<rect y="0.777802" width="44" height="44" rx="12" fill="#B3DE96"/>
<path d="M29.0001 13.3121C29.6568 13.3121 30.2884 13.5627 30.7667 14.0123C31.2135 14.4752 31.4647 15.0923 31.4678 15.7359C31.4709 16.3822 31.2233 17.0053 30.7774 17.4732L28.378 19.8824C28.0113 20.2448 27.5417 20.4848 27.0333 20.5699C26.5246 20.6549 26.0019 20.5806 25.5372 20.357L25.2169 20.2037L24.9669 20.4547L22.8165 22.6041L22.463 22.9576L24.8165 25.3111L24.8204 25.316C25.1283 25.6166 25.3532 25.9917 25.4737 26.4048C25.5941 26.8178 25.6058 27.2546 25.5079 27.6734C25.4098 28.0924 25.2054 28.4796 24.9141 28.7964C24.6229 29.1131 24.255 29.3492 23.8458 29.482L23.8419 29.483L15.8419 32.1431L15.835 32.1461C15.57 32.2386 15.2905 32.2831 15.0098 32.2779H14.9922C14.6511 32.2833 14.3124 32.2188 13.9971 32.0884C13.6818 31.958 13.3969 31.7639 13.1592 31.5191L13.1544 31.5152L13.0362 31.3873C12.7714 31.0818 12.584 30.7161 12.4913 30.3209C12.3853 29.8691 12.4065 29.3966 12.5538 28.9566L12.5547 28.9556L15.2149 20.9556L15.2159 20.9517C15.3487 20.5426 15.5848 20.1745 15.9014 19.8834C16.2181 19.5922 16.6046 19.3877 17.0235 19.2896C17.4424 19.1916 17.88 19.2034 18.293 19.3238C18.6545 19.4292 18.9869 19.6148 19.2657 19.8658L19.3819 19.9771L19.3868 19.981L21.7403 22.3345L24.4942 19.5806L24.3409 19.2613C24.1173 18.7966 24.043 18.2739 24.128 17.7652C24.2128 17.2579 24.4516 16.7888 24.8126 16.4224L27.2325 14.0123C27.7109 13.5625 28.3431 13.3121 29.0001 13.3121ZM17.3858 20.2808L17.3428 20.2857L17.3008 20.2974C17.0407 20.3727 16.8059 20.5174 16.6212 20.7154C16.4488 20.9001 16.3277 21.1254 16.2657 21.3697L13.5958 29.3697L13.5919 29.3814C13.5123 29.6419 13.5053 29.9199 13.5713 30.1841C13.6373 30.4477 13.7738 30.6883 13.9659 30.8804V30.8814C14.1583 31.0742 14.3999 31.2109 14.6641 31.2769C14.9282 31.3429 15.2055 31.3359 15.4659 31.2564L15.4737 31.2535L15.4815 31.2515L23.4561 28.5318L23.4571 28.5328C23.699 28.4528 23.9162 28.3119 24.0889 28.1246C24.2616 27.9372 24.3844 27.7091 24.4444 27.4615C24.5044 27.2139 24.5004 26.9551 24.4327 26.7095C24.3649 26.4639 24.2352 26.2391 24.0567 26.0572L24.0547 26.0552L22.1348 24.1255L21.7794 23.7681L21.4249 24.1265L20.5645 24.9957C20.5181 25.0424 20.4632 25.0797 20.4024 25.105C20.3415 25.1304 20.276 25.1431 20.21 25.1431C20.144 25.1431 20.0786 25.1304 20.0176 25.105C19.9568 25.0797 19.901 25.0425 19.8546 24.9957L19.8516 24.9927C19.8049 24.9463 19.7676 24.8905 19.7422 24.8297C19.7171 24.769 19.7042 24.7039 19.7042 24.6382C19.7042 24.5724 19.717 24.5067 19.7422 24.4459C19.7675 24.3852 19.8041 24.3291 19.8506 24.2828L19.8516 24.2838L20.7217 23.4234L21.0792 23.0699L18.7217 20.7125C18.4424 20.4356 18.0653 20.2795 17.6719 20.2779H17.671C17.5761 20.2709 17.4804 20.2706 17.3858 20.2808ZM29.0001 14.272C28.802 14.272 28.6057 14.3111 28.4229 14.3873C28.2402 14.4634 28.074 14.5748 27.9346 14.7154L25.5255 17.1353C25.2483 17.4147 25.0916 17.7926 25.0899 18.1861V18.19C25.0912 18.4848 25.1789 18.7731 25.3428 19.0181C25.5068 19.2632 25.7397 19.4543 26.0118 19.5679C26.2839 19.6816 26.5836 19.7124 26.8731 19.6568C27.1627 19.6011 27.4291 19.4609 27.6397 19.2545L27.6436 19.2515L29.9073 16.9879H29.9161L30.0626 16.8423C30.2029 16.7031 30.3146 16.5375 30.3907 16.355C30.4668 16.1723 30.5059 15.9759 30.5059 15.7779C30.5059 15.5799 30.4668 15.3835 30.3907 15.2007C30.3145 15.018 30.2022 14.8519 30.0616 14.7125C29.9229 14.5735 29.7584 14.4628 29.5772 14.3873C29.3944 14.3111 29.1981 14.272 29.0001 14.272Z" fill="#F5F6FA" stroke="#F5F6FA"/>
</svg>
