<svg width="44" height="45" viewBox="0 0 44 45" fill="none" xmlns="http://www.w3.org/2000/svg">
<rect y="0.555573" width="44" height="44" rx="12" fill="#82C9A7"/>
<path d="M29.0001 13.0898C29.6568 13.0899 30.2884 13.3405 30.7667 13.79C31.2135 14.2529 31.4647 14.8701 31.4678 15.5137C31.4709 16.16 31.2233 16.7831 30.7774 17.251L28.378 19.6602C28.0113 20.0225 27.5417 20.2626 27.0333 20.3477C26.5246 20.4327 26.0019 20.3583 25.5372 20.1348L25.2169 19.9814L24.9669 20.2324L22.8165 22.3818L22.463 22.7354L24.8165 25.0889L24.8204 25.0938C25.1283 25.3944 25.3532 25.7695 25.4737 26.1826C25.5941 26.5956 25.6058 27.0323 25.5079 27.4512C25.4098 27.8702 25.2054 28.2574 24.9141 28.5742C24.6229 28.8909 24.255 29.127 23.8458 29.2598L23.8419 29.2607L15.8419 31.9209L15.835 31.9238C15.57 32.0164 15.2905 32.0609 15.0098 32.0557H14.9922C14.6511 32.0611 14.3124 31.9966 13.9971 31.8662C13.6818 31.7358 13.3969 31.5417 13.1592 31.2969L13.1544 31.293L13.0362 31.165C12.7714 30.8596 12.584 30.4939 12.4913 30.0986C12.3853 29.6469 12.4065 29.1744 12.5538 28.7344L12.5547 28.7334L15.2149 20.7334L15.2159 20.7295C15.3487 20.3203 15.5848 19.9523 15.9014 19.6611C16.2181 19.37 16.6046 19.1655 17.0235 19.0674C17.4424 18.9694 17.88 18.9812 18.293 19.1016C18.6545 19.207 18.9869 19.3926 19.2657 19.6436L19.3819 19.7549L19.3868 19.7588L21.7403 22.1123L24.4942 19.3584L24.3409 19.0391C24.1173 18.5743 24.043 18.0516 24.128 17.543C24.2128 17.0356 24.4516 16.5665 24.8126 16.2002L27.2325 13.79C27.7109 13.3402 28.3431 13.0898 29.0001 13.0898ZM17.3858 20.0586L17.3428 20.0635L17.3008 20.0752C17.0407 20.1504 16.8059 20.2952 16.6212 20.4932C16.4488 20.6779 16.3277 20.9032 16.2657 21.1475L13.5958 29.1475L13.5919 29.1592C13.5123 29.4197 13.5053 29.6977 13.5713 29.9619C13.6373 30.2255 13.7738 30.4661 13.9659 30.6582V30.6592C14.1583 30.8519 14.3999 30.9886 14.6641 31.0547C14.9282 31.1207 15.2055 31.1137 15.4659 31.0342L15.4737 31.0312L15.4815 31.0293L23.4561 28.3096L23.4571 28.3105C23.699 28.2306 23.9162 28.0897 24.0889 27.9023C24.2616 27.715 24.3844 27.4869 24.4444 27.2393C24.5044 26.9917 24.5004 26.7328 24.4327 26.4873C24.3649 26.2416 24.2352 26.0168 24.0567 25.835L24.0547 25.833L22.1348 23.9033L21.7794 23.5459L21.4249 23.9043L20.5645 24.7734C20.5181 24.8202 20.4632 24.8575 20.4024 24.8828C20.3415 24.9082 20.276 24.9209 20.21 24.9209C20.144 24.9209 20.0786 24.9082 20.0176 24.8828C19.9568 24.8574 19.901 24.8203 19.8546 24.7734L19.8516 24.7705C19.8049 24.7241 19.7676 24.6682 19.7422 24.6074C19.7171 24.5468 19.7042 24.4817 19.7042 24.416C19.7042 24.3502 19.717 24.2844 19.7422 24.2236C19.7675 24.163 19.8041 24.1069 19.8506 24.0605L19.8516 24.0615L20.7217 23.2012L21.0792 22.8477L18.7217 20.4902C18.4424 20.2133 18.0653 20.0573 17.6719 20.0557H17.671C17.5761 20.0486 17.4804 20.0484 17.3858 20.0586ZM29.0001 14.0498C28.802 14.0498 28.6057 14.0889 28.4229 14.165C28.2402 14.2412 28.074 14.3526 27.9346 14.4932L25.5255 16.9131C25.2483 17.1925 25.0916 17.5704 25.0899 17.9639V17.9678C25.0912 18.2626 25.1789 18.5509 25.3428 18.7959C25.5068 19.0409 25.7397 19.2321 26.0118 19.3457C26.2839 19.4593 26.5836 19.4902 26.8731 19.4346C27.1627 19.3789 27.4291 19.2386 27.6397 19.0322L27.6436 19.0293L29.9073 16.7656H29.9161L30.0626 16.6201C30.2029 16.4808 30.3146 16.3153 30.3907 16.1328C30.4668 15.9501 30.5059 15.7536 30.5059 15.5557C30.5059 15.3576 30.4668 15.1613 30.3907 14.9785C30.3145 14.7957 30.2022 14.6297 30.0616 14.4902C29.9229 14.3513 29.7584 14.2406 29.5772 14.165C29.3944 14.0889 29.1981 14.0498 29.0001 14.0498Z" fill="#F5F6FA" stroke="#F5F6FA"/>
</svg>
