<svg width="44" height="45" viewBox="0 0 44 45" fill="none" xmlns="http://www.w3.org/2000/svg">
<rect y="0.444443" width="44" height="44" rx="12" fill="#F26FB1"/>
<path d="M21.9996 12.9457C22.1209 12.9457 22.2385 12.9898 22.3297 13.0697L31.3278 21.0678L31.3287 21.0688C31.4052 21.1364 31.4589 21.2264 31.483 21.3256C31.5011 21.4 31.5023 21.4771 31.486 21.5512L31.4635 21.6244C31.4273 21.7182 31.3636 21.7988 31.2809 21.8559C31.198 21.9129 31.0993 21.9444 30.9987 21.9447H29.4996V31.4447C29.4996 31.5772 29.4469 31.7045 29.3532 31.7982C29.2594 31.8918 29.1321 31.9447 28.9996 31.9447H14.9996C14.8672 31.9446 14.7398 31.8919 14.6461 31.7982C14.5524 31.7046 14.4997 31.5772 14.4996 31.4447V21.9447H13.0016C12.9009 21.9444 12.8023 21.913 12.7194 21.8559C12.6574 21.8132 12.606 21.7575 12.569 21.6928L12.5367 21.6244L12.5143 21.5512C12.4979 21.4771 12.4992 21.4 12.5172 21.3256C12.5413 21.2264 12.595 21.1364 12.6715 21.0688L12.6725 21.0678L21.6725 13.0678L21.6715 13.0668C21.7623 12.9881 21.8794 12.9458 21.9996 12.9457ZM15.4996 30.9447H19.4996V27.4447C19.4996 26.7818 19.7634 26.146 20.2321 25.6772C20.7008 25.2084 21.3367 24.9448 21.9996 24.9447C22.6627 24.9447 23.2994 25.2083 23.7682 25.6772C24.2367 26.146 24.4996 26.7819 24.4996 27.4447V30.9447H28.4996V21.9447H15.4996V30.9447ZM21.9996 25.9447C21.6019 25.9448 21.2203 26.103 20.9391 26.3842C20.658 26.6655 20.4996 27.0471 20.4996 27.4447V30.9447H23.4996V27.4447C23.4996 27.0469 23.3415 26.6655 23.0602 26.3842C22.7789 26.1029 22.3974 25.9447 21.9996 25.9447ZM21.6676 14.4106L15.2975 20.0707L14.3141 20.9447H29.6852L28.7018 20.0707L22.3317 14.4106L21.9996 14.1156L21.6676 14.4106Z" fill="#D5DAE8" stroke="#E2E5EF"/>
</svg>
