<svg width="44" height="45" viewBox="0 0 44 45" fill="none" xmlns="http://www.w3.org/2000/svg">
<rect y="0.666656" width="44" height="44" rx="12" fill="#FAAAEF"/>
<path d="M21.9996 13.1679C22.1209 13.1679 22.2385 13.212 22.3297 13.2919L31.3278 21.29L31.3287 21.291C31.4052 21.3586 31.4589 21.4486 31.483 21.5478C31.5011 21.6222 31.5023 21.6993 31.486 21.7734L31.4635 21.8466C31.4273 21.9404 31.3636 22.021 31.2809 22.0781C31.198 22.1352 31.0993 22.1666 30.9987 22.1669H29.4996V31.6669C29.4996 31.7995 29.4469 31.9268 29.3532 32.0205C29.2594 32.114 29.1321 32.1669 28.9996 32.1669H14.9996C14.8672 32.1669 14.7398 32.1141 14.6461 32.0205C14.5524 31.9268 14.4997 31.7994 14.4996 31.6669V22.1669H13.0016C12.9009 22.1666 12.8023 22.1352 12.7194 22.0781C12.6574 22.0354 12.606 21.9797 12.569 21.915L12.5367 21.8466L12.5143 21.7734C12.4979 21.6993 12.4992 21.6222 12.5172 21.5478C12.5413 21.4486 12.595 21.3586 12.6715 21.291L12.6725 21.29L21.6725 13.29L21.6715 13.289C21.7623 13.2103 21.8794 13.168 21.9996 13.1679ZM15.4996 31.1669H19.4996V27.6669C19.4996 27.0041 19.7634 26.3682 20.2321 25.8994C20.7008 25.4306 21.3367 25.167 21.9996 25.1669C22.6627 25.1669 23.2994 25.4305 23.7682 25.8994C24.2367 26.3682 24.4996 27.0041 24.4996 27.6669V31.1669H28.4996V22.1669H15.4996V31.1669ZM21.9996 26.1669C21.6019 26.167 21.2203 26.3252 20.9391 26.6064C20.658 26.8877 20.4996 27.2693 20.4996 27.6669V31.1669H23.4996V27.6669C23.4996 27.2691 23.3415 26.8877 23.0602 26.6064C22.7789 26.3251 22.3974 26.1669 21.9996 26.1669ZM21.6676 14.6328L15.2975 20.2929L14.3141 21.1669H29.6852L28.7018 20.2929L22.3317 14.6328L21.9996 14.3378L21.6676 14.6328Z" fill="#F5F6FA" stroke="#F5F6FA"/>
</svg>
