<svg width="45" height="45" viewBox="0 0 45 45" fill="none" xmlns="http://www.w3.org/2000/svg">
<rect x="0.5" y="0.111115" width="44" height="44" rx="12" fill="#9ADBD7"/>
<path d="M27 16.6107C26.0718 16.6107 25.1817 16.9798 24.5254 17.6361C23.8691 18.2924 23.5001 19.1826 23.5 20.1107V24.1126C23.5021 24.8347 23.7278 25.5383 24.1455 26.1273C24.5632 26.7162 25.1523 27.162 25.833 27.4027L26.5 27.638V23.1107C26.5001 22.9782 26.5528 22.8508 26.6465 22.7572C26.7402 22.6635 26.8675 22.6107 27 22.6107C27.1325 22.6107 27.2598 22.6635 27.3535 22.7572C27.4472 22.8508 27.4999 22.9782 27.5 23.1107V27.638L28.167 27.4027C28.8477 27.162 29.4368 26.7162 29.8545 26.1273C30.22 25.6119 30.4391 25.0087 30.4893 24.3822L30.5 24.1126V20.1107C30.4999 19.1826 30.1309 18.2924 29.4746 17.6361C28.8183 16.9798 27.9282 16.6107 27 16.6107ZM19.876 13.6839C19.0017 13.5104 18.0955 13.6005 17.2725 13.9427C16.4493 14.285 15.7465 14.8644 15.2529 15.6068C14.7598 16.3486 14.4975 17.2199 14.5 18.1107V22.1126C14.5032 23.1078 14.8366 24.074 15.4473 24.8597C16.0579 25.6453 16.9116 26.2067 17.875 26.4554L18.5 26.6165V23.1107C18.5001 22.9782 18.5528 22.8508 18.6465 22.7572C18.7402 22.6635 18.8675 22.6107 19 22.6107C19.1325 22.6107 19.2598 22.6635 19.3535 22.7572C19.4472 22.8508 19.4999 22.9782 19.5 23.1107V26.6273L20.125 26.4652C21.0308 26.2305 21.8417 25.7189 22.4434 25.0023L22.5898 24.8275L22.5537 24.6019C22.5268 24.4351 22.5089 24.2667 22.5 24.098V20.1117C22.5014 19.1983 22.7806 18.3068 23.3008 17.556L23.4219 17.3812L23.3809 17.1742C23.2117 16.3222 22.7956 15.5385 22.1855 14.9203L22.1836 14.9173C21.5536 14.2868 20.7503 13.8575 19.876 13.6839ZM18.5 27.599L18.083 27.5277C16.8025 27.3111 15.6396 26.649 14.8008 25.6576C13.962 24.666 13.5013 23.4094 13.5 22.1107V18.1185C13.5181 16.8616 13.9661 15.6487 14.7695 14.682C15.573 13.7153 16.6836 13.0526 17.916 12.805C19.1484 12.5575 20.4285 12.7402 21.543 13.3216C22.6575 13.9031 23.5399 14.8489 24.042 16.0013L24.2686 16.5218L24.7568 16.2298C25.3498 15.8749 26.0174 15.6665 26.7041 15.6205L27 15.6107C28.1934 15.6107 29.3377 16.0853 30.1816 16.929C31.0255 17.7729 31.4999 18.9174 31.5 20.1107V24.1117C31.5001 25.1487 31.142 26.1539 30.4863 26.9574C29.8304 27.7609 28.9166 28.3133 27.9004 28.5208L27.5 28.6029V31.1107C27.5 31.2432 27.4471 31.3705 27.3535 31.4642C27.2597 31.558 27.1326 31.6107 27 31.6107C26.8674 31.6107 26.7403 31.558 26.6465 31.4642C26.5529 31.3705 26.5 31.2432 26.5 31.1107V28.6048L26.1025 28.5218C25.5079 28.3974 24.9443 28.154 24.4463 27.806C23.9482 27.458 23.5254 27.0121 23.2041 26.4964L22.9053 26.0169L22.4658 26.3724C21.7276 26.9685 20.8489 27.3664 19.9141 27.5287L19.5 27.5999V31.1107C19.5 31.2432 19.4471 31.3705 19.3535 31.4642C19.2597 31.558 19.1326 31.6107 19 31.6107C18.8674 31.6107 18.7403 31.558 18.6465 31.4642C18.5529 31.3705 18.5 31.2432 18.5 31.1107V27.599Z" fill="#F5F6FA" stroke="#F5F6FA"/>
</svg>
