<svg width="45" height="45" viewBox="0 0 45 45" fill="none" xmlns="http://www.w3.org/2000/svg">
<rect x="0.75" y="0.111115" width="44" height="44" rx="12" fill="#9ADBD7"/>
<path d="M29.7501 12.6454C30.4068 12.6454 31.0384 12.8961 31.5167 13.3456C31.9635 13.8085 32.2147 14.4256 32.2178 15.0692C32.2209 15.7156 31.9733 16.3386 31.5274 16.8065L29.128 19.2157C28.7613 19.5781 28.2917 19.8181 27.7833 19.9032C27.2746 19.9882 26.7519 19.9139 26.2872 19.6903L25.9669 19.537L25.7169 19.788L23.5665 21.9374L23.213 22.2909L25.5665 24.6444L25.5704 24.6493C25.8783 24.9499 26.1032 25.325 26.2237 25.7382C26.3441 26.1511 26.3558 26.5879 26.2579 27.0067C26.1598 27.4258 25.9554 27.813 25.6641 28.1298C25.3729 28.4464 25.005 28.6825 24.5958 28.8153L24.5919 28.8163L16.5919 31.4764L16.585 31.4794C16.32 31.5719 16.0405 31.6164 15.7598 31.6112H15.7422C15.4011 31.6166 15.0624 31.5521 14.7471 31.4218C14.4318 31.2913 14.1469 31.0972 13.9092 30.8524L13.9044 30.8485L13.7862 30.7206C13.5214 30.4151 13.334 30.0495 13.2413 29.6542C13.1353 29.2024 13.1565 28.73 13.3038 28.2899L13.3047 28.2889L15.9649 20.2889L15.9659 20.285C16.0987 19.8759 16.3348 19.5078 16.6514 19.2167C16.9681 18.9255 17.3546 18.721 17.7735 18.6229C18.1924 18.5249 18.63 18.5367 19.043 18.6571C19.4045 18.7625 19.7369 18.9481 20.0157 19.1991L20.1319 19.3104L20.1368 19.3143L22.4903 21.6678L25.2442 18.9139L25.0909 18.5946C24.8673 18.1299 24.793 17.6072 24.878 17.0985C24.9628 16.5912 25.2016 16.1221 25.5626 15.7557L27.9825 13.3456C28.4609 12.8958 29.0931 12.6454 29.7501 12.6454ZM18.1358 19.6141L18.0928 19.619L18.0508 19.6307C17.7907 19.706 17.5559 19.8507 17.3712 20.0487C17.1988 20.2334 17.0777 20.4587 17.0157 20.703L14.3458 28.703L14.3419 28.7147C14.2623 28.9752 14.2553 29.2532 14.3214 29.5175C14.3873 29.7811 14.5238 30.0216 14.7159 30.2137V30.2147C14.9083 30.4075 15.1499 30.5442 15.4141 30.6102C15.6782 30.6762 15.9555 30.6692 16.2159 30.5897L16.2237 30.5868L16.2315 30.5848L24.2061 27.8651L24.2071 27.8661C24.449 27.7861 24.6662 27.6452 24.8389 27.4579C25.0116 27.2705 25.1344 27.0424 25.1944 26.7948C25.2544 26.5473 25.2504 26.2884 25.1827 26.0428C25.1149 25.7972 24.9852 25.5724 24.8067 25.3905L24.8047 25.3885L22.8848 23.4589L22.5294 23.1014L22.1749 23.4598L21.3145 24.329C21.2681 24.3757 21.2132 24.413 21.1524 24.4384C21.0915 24.4637 21.026 24.4764 20.96 24.4764C20.894 24.4764 20.8286 24.4637 20.7676 24.4384C20.7068 24.413 20.651 24.3758 20.6046 24.329L20.6016 24.326C20.5549 24.2796 20.5176 24.2238 20.4922 24.163C20.4671 24.1023 20.4542 24.0372 20.4542 23.9716C20.4542 23.9057 20.467 23.84 20.4922 23.7792C20.5175 23.7186 20.5541 23.6624 20.6006 23.6161L20.6016 23.6171L21.4717 22.7567L21.8292 22.4032L19.4717 20.0458C19.1924 19.7689 18.8153 19.6129 18.4219 19.6112H18.421C18.3261 19.6042 18.2304 19.6039 18.1358 19.6141ZM29.7501 13.6053C29.552 13.6053 29.3557 13.6444 29.1729 13.7206C28.9902 13.7967 28.824 13.9082 28.6846 14.0487L26.2755 16.4686C25.9983 16.748 25.8416 17.1259 25.8399 17.5194V17.5233C25.8412 17.8181 25.9289 18.1064 26.0928 18.3514C26.2568 18.5965 26.4897 18.7876 26.7618 18.9012C27.0339 19.0149 27.3336 19.0458 27.6231 18.9901C27.9127 18.9345 28.1791 18.7942 28.3897 18.5878L28.3936 18.5848L30.6573 16.3212H30.6661L30.8126 16.1757C30.9529 16.0364 31.0646 15.8709 31.1407 15.6884C31.2168 15.5056 31.2559 15.3092 31.2559 15.1112C31.2559 14.9132 31.2168 14.7168 31.1407 14.5341C31.0645 14.3513 30.9522 14.1852 30.8116 14.0458C30.6729 13.9068 30.5084 13.7961 30.3272 13.7206C30.1444 13.6444 29.9481 13.6054 29.7501 13.6053Z" fill="#F5F6FA" stroke="#F5F6FA"/>
</svg>
