<svg width="45" height="45" viewBox="0 0 45 45" fill="none" xmlns="http://www.w3.org/2000/svg">
<rect x="0.25" y="0.444443" width="44" height="44" rx="12" fill="#F26FB1"/>
<path d="M29.2501 12.9787C29.9068 12.9787 30.5384 13.2294 31.0167 13.6789C31.4635 14.1418 31.7147 14.759 31.7178 15.4025C31.7209 16.0489 31.4733 16.6719 31.0274 17.1399L28.628 19.549C28.2613 19.9114 27.7917 20.1515 27.2833 20.2365C26.7746 20.3216 26.2519 20.2472 25.7872 20.0236L25.4669 19.8703L25.2169 20.1213L23.0665 22.2707L22.713 22.6242L25.0665 24.9777L25.0704 24.9826C25.3783 25.2833 25.6032 25.6584 25.7237 26.0715C25.8441 26.4845 25.8558 26.9212 25.7579 27.34C25.6598 27.7591 25.4554 28.1463 25.1641 28.4631C24.8729 28.7798 24.505 29.0158 24.0958 29.1486L24.0919 29.1496L16.0919 31.8098L16.085 31.8127C15.82 31.9052 15.5405 31.9497 15.2598 31.9445H15.2422C14.9011 31.9499 14.5624 31.8855 14.2471 31.7551C13.9318 31.6247 13.6469 31.4306 13.4092 31.1858L13.4044 31.1818L13.2862 31.0539C13.0214 30.7484 12.834 30.3828 12.7413 29.9875C12.6353 29.5357 12.6565 29.0633 12.8038 28.6233L12.8047 28.6223L15.4649 20.6223L15.4659 20.6184C15.5987 20.2092 15.8348 19.8412 16.1514 19.55C16.4681 19.2588 16.8546 19.0544 17.2735 18.9563C17.6924 18.8582 18.13 18.87 18.543 18.9904C18.9045 19.0958 19.2369 19.2815 19.5157 19.5324L19.6319 19.6438L19.6368 19.6477L21.9903 22.0012L24.7442 19.2473L24.5909 18.9279C24.3673 18.4632 24.293 17.9405 24.378 17.4318C24.4628 16.9245 24.7016 16.4554 25.0626 16.0891L27.4825 13.6789C27.9609 13.2291 28.5931 12.9787 29.2501 12.9787ZM17.6358 19.9475L17.5928 19.9524L17.5508 19.9641C17.2907 20.0393 17.0559 20.184 16.8712 20.382C16.6988 20.5668 16.5777 20.792 16.5157 21.0363L13.8458 29.0363L13.8419 29.0481C13.7623 29.3086 13.7553 29.5865 13.8214 29.8508C13.8873 30.1144 14.0238 30.355 14.2159 30.5471V30.5481C14.4083 30.7408 14.6499 30.8775 14.9141 30.9436C15.1782 31.0096 15.4555 31.0025 15.7159 30.9231L15.7237 30.9201L15.7315 30.9182L23.7061 28.1984L23.7071 28.1994C23.949 28.1195 24.1662 27.9785 24.3389 27.7912C24.5116 27.6039 24.6344 27.3758 24.6944 27.1281C24.7544 26.8806 24.7504 26.6217 24.6827 26.3762C24.6149 26.1305 24.4852 25.9057 24.3067 25.7238L24.3047 25.7219L22.3848 23.7922L22.0294 23.4348L21.6749 23.7932L20.8145 24.6623C20.7681 24.709 20.7132 24.7464 20.6524 24.7717C20.5915 24.7971 20.526 24.8098 20.46 24.8098C20.394 24.8098 20.3286 24.7971 20.2676 24.7717C20.2068 24.7463 20.151 24.7092 20.1046 24.6623L20.1016 24.6594C20.0549 24.613 20.0176 24.5571 19.9922 24.4963C19.9671 24.4357 19.9542 24.3706 19.9542 24.3049C19.9542 24.239 19.967 24.1733 19.9922 24.1125C20.0175 24.0519 20.0541 23.9958 20.1006 23.9494L20.1016 23.9504L20.9717 23.09L21.3292 22.7365L18.9717 20.3791C18.6924 20.1022 18.3153 19.9462 17.9219 19.9445H17.921C17.8261 19.9375 17.7304 19.9372 17.6358 19.9475ZM29.2501 13.9387C29.052 13.9387 28.8557 13.9778 28.6729 14.0539C28.4902 14.1301 28.324 14.2415 28.1846 14.382L25.7755 16.802C25.4983 17.0814 25.3416 17.4592 25.3399 17.8527V17.8567C25.3412 18.1515 25.4289 18.4397 25.5928 18.6848C25.7568 18.9298 25.9897 19.1209 26.2618 19.2346C26.5339 19.3482 26.8336 19.3791 27.1231 19.3234C27.4127 19.2678 27.6791 19.1275 27.8897 18.9211L27.8936 18.9182L30.1573 16.6545H30.1661L30.3126 16.509C30.4529 16.3697 30.5646 16.2042 30.6407 16.0217C30.7168 15.8389 30.7559 15.6425 30.7559 15.4445C30.7559 15.2465 30.7168 15.0502 30.6407 14.8674C30.5645 14.6846 30.4522 14.5185 30.3116 14.3791C30.1729 14.2402 30.0084 14.1295 29.8272 14.0539C29.6444 13.9778 29.4481 13.9387 29.2501 13.9387Z" fill="#E2E5EF" stroke="#E2E5EF"/>
</svg>
